<?xml version="1.0" encoding="UTF-8"?>
<svg id="Capa_2" data-name="Capa 2" xmlns="http://www.w3.org/2000/svg" viewBox="0 0 45.63 66.44">
  <defs>
    <style>
      .cls-1 {
        fill: #fff;
      }
    </style>
  </defs>
  <g id="Capa_1-2" data-name="Capa 1">
    <g>
      <path class="cls-1" d="M27.47,27.77c1.8-1.8,2.71-3.99,2.71-6.51,0-2.25-.73-4.23-2.16-5.92l-.56-.62c-1.81-1.78-4.02-2.69-6.56-2.69H2.09v18.46h18.81c2.56,0,4.77-.92,6.57-2.72ZM6.95,16.18h14.95c.97,0,1.72.47,2.42,1.52.71,1.06,1.02,2.16,1.02,3.56v2.02l-1.02,1.54c-.7,1.05-1.45,1.52-2.42,1.52H6.95v-10.17h0Z"/>
      <path class="cls-1" d="M42.32,14.8c-1.01-3.26-2.74-6.15-5.18-8.59C33,2.09,27.96,0,22.15,0H6.73C4.17,0,2.09,2.08,2.09,4.64v1.89h20.06c4.03,0,7.55,1.45,10.44,4.3,1.53,1.52,2.67,3.3,3.39,5.32-.92,1-1.44,2.29-1.44,3.65,0,1.7.77,3.26,2.05,4.3-.53,2.92-1.88,5.46-4.01,7.57-2.89,2.86-6.4,4.31-10.44,4.31h-2.73l-2.03,3.68.74,1.23c5.26,8.75,9.06,15.08,11.47,19.14h-4.61c-2.79,0-5.36-1.52-6.7-3.96l-8.06-14.62c.32-.67.49-1.4.49-2.16,0-1.47-.54-2.8-1.56-3.85-1-1.01-2.35-1.57-3.79-1.57h0c-1.44,0-2.79.56-3.82,1.58-1.01,1.04-1.54,2.34-1.54,3.77s.54,2.79,1.55,3.78c.85.86,1.89,1.38,3.05,1.53l8.74,15.96c2.01,3.67,5.85,5.95,10.04,5.95h17.71l-14.69-24.37c4.1-.82,7.72-2.8,10.8-5.91,3.25-3.28,5.22-7.22,5.85-11.73,1.58-1,2.58-2.75,2.58-4.64,0-2.23-1.32-4.15-3.32-5.01v.02ZM5.05,42.27c-1.55,0-2.8-1.25-2.8-2.8s1.25-2.8,2.8-2.8,2.8,1.25,2.8,2.8-1.25,2.8-2.8,2.8ZM40.31,22.97c-1.55,0-2.8-1.25-2.8-2.8s1.25-2.8,2.8-2.8,2.8,1.25,2.8,2.8-1.25,2.8-2.8,2.8Z"/>
    </g>
  </g>
</svg>