<svg id="Grupo_31309" data-name="Grupo 31309" xmlns="http://www.w3.org/2000/svg" width="44.587" height="39.986" viewBox="0 0 44.587 39.986">
  <path id="Trazado_10670" data-name="Trazado 10670" d="M42.822,46.124a3.061,3.061,0,0,0,2.548-1.363l3.059-4.588a3.072,3.072,0,0,0,.511-1.7,3.038,3.038,0,0,0-.511-1.7L45.37,32.193a3.061,3.061,0,0,0-2.548-1.363H35.478a3.061,3.061,0,0,0-2.548,1.363l-3.059,4.588a3.072,3.072,0,0,0-.511,1.7,3.038,3.038,0,0,0,.511,1.7L35.5,48.612a.76.76,0,0,0,.635.341h.026a.744.744,0,0,0,.639-.379L38,46.507a.759.759,0,0,1,.66-.383Zm-10.7-5.334c4.648-1.061,8.461-2.7,8.461-4.183h0c0-1.363-2.637-2.279-6.829-2.884l.1-.149c6.049.72,10.058,1.938,10.058,3.962s-3.979,4.043-10.356,5.4L32.116,40.79Zm-.976-1.465a1.5,1.5,0,0,1-.213-1.193l1.977-.511c2.049-.613,3.2-1.3,3.2-2.041,0-.626-.942-1.125-2.586-1.525l.17-.256c3.412.55,5.508,1.342,5.508,2.467,0,1.21-2.347,2.416-6.3,3.344l-1.44.2-.324-.486Zm5.525,6.416-.579,1L34.276,44.02C41.1,42.533,45.387,40.386,45.387,38s-4.648-3.711-11.5-4.477l.32-.477a1.533,1.533,0,0,1,1.274-.682h7.345a1.533,1.533,0,0,1,1.274.682l3.059,4.588a1.534,1.534,0,0,1,0,1.7L44.1,43.913a1.533,1.533,0,0,1-1.274.682H38.656A2.3,2.3,0,0,0,36.67,45.741Z" transform="translate(-16.856 -17.696)" fill="#22183d"/>
  <path id="Trazado_10671" data-name="Trazado 10671" d="M44.593,19.993c0-2.045-1.125-3.936-3.089-5.547a19.972,19.972,0,0,0-32.118-9.7A2.029,2.029,0,0,0,6.613,7.621,19.848,19.848,0,0,0,3.1,14.446C1.135,16.057.01,17.948.01,19.993S1.13,23.925,3.1,25.536a19.988,19.988,0,0,0,38.41,0c1.964-1.61,3.089-3.5,3.089-5.547ZM7.022,8.043a2.024,2.024,0,0,0,2.795-2.9A19.388,19.388,0,0,1,40.7,13.837c-3.651-2.573-9.573-4.307-16.487-4.58a1.3,1.3,0,0,0-1.27-1.022,1.286,1.286,0,0,0-1.257.988C14.222,9.317,7.776,11.1,3.9,13.837a19.466,19.466,0,0,1,3.127-5.8ZM.594,19.993A6.144,6.144,0,0,1,2.8,15.584a19.9,19.9,0,0,0,0,8.814A6.129,6.129,0,0,1,.594,19.993ZM22.3,39.4A19.445,19.445,0,0,1,3.9,26.145a25.373,25.373,0,0,0,9.181,3.685.716.716,0,1,0,.6-1.112.7.7,0,0,0-.613.354,23.864,23.864,0,0,1-9.5-4.017,19.364,19.364,0,0,1,0-10.122c3.681-2.905,10.42-4.878,18.161-4.972a1.292,1.292,0,0,0,2.437.03c7.2.285,13.4,2.2,16.875,4.942a19.266,19.266,0,0,1,.673,5.061,19.032,19.032,0,0,1-.626,4.9c-3.515,2.778-9.82,4.78-16.862,5.18a1.311,1.311,0,1,0-.034.648c.1,0,.217,0,.371,0,6.765-.315,12.555-2.032,16.146-4.563A19.442,19.442,0,0,1,22.3,39.4ZM41.832,24.24a19.961,19.961,0,0,0,.46-4.247,20.452,20.452,0,0,0-.494-4.409A6.144,6.144,0,0,1,44,19.993,5.813,5.813,0,0,1,41.832,24.24Z" transform="translate(-0.01)" fill="#22183d"/>
</svg>
