<svg xmlns="http://www.w3.org/2000/svg" xmlns:xlink="http://www.w3.org/1999/xlink" width="102" height="102" viewBox="0 0 102 102">
  <defs>
    <filter id="Trazado_10472" x="0" y="0" width="102" height="102" filterUnits="userSpaceOnUse">
      <feOffset dy="8" input="SourceAlpha"/>
      <feGaussianBlur stdDeviation="8" result="blur"/>
      <feFlood flood-color="#00131f" flood-opacity="0.078"/>
      <feComposite operator="in" in2="blur"/>
      <feComposite in="SourceGraphic"/>
    </filter>
  </defs>
  <g id="Componente_3521_4" data-name="Componente 3521 – 4" transform="translate(24 16)">
    <g transform="matrix(1, 0, 0, 1, -24, -16)" filter="url(#Trazado_10472)">
      <g id="Trazado_10472-2" data-name="Trazado 10472" transform="translate(24 16)" fill="#fff">
        <path d="M27,0A27,27,0,1,1,0,27,27,27,0,0,1,27,0Z" stroke="none"/>
        <path d="M 27 1 C 23.48958015441895 1 20.08470153808594 1.687301635742188 16.87992858886719 3.042800903320312 C 13.78398895263672 4.352268218994141 11.00334167480469 6.22711181640625 8.615219116210938 8.615219116210938 C 6.22711181640625 11.00334167480469 4.352268218994141 13.78398895263672 3.042800903320312 16.87992858886719 C 1.687301635742188 20.08470153808594 1 23.48958015441895 1 27 C 1 30.51041984558105 1.687301635742188 33.91529846191406 3.042800903320312 37.12007141113281 C 4.352268218994141 40.21601104736328 6.22711181640625 42.99665832519531 8.615219116210938 45.38478088378906 C 11.00334167480469 47.77288818359375 13.78398895263672 49.64772796630859 16.87992858886719 50.95719909667969 C 20.08470153808594 52.31269836425781 23.48958015441895 53 27 53 C 30.51041984558105 53 33.91529846191406 52.31269836425781 37.12007141113281 50.95719909667969 C 40.21601104736328 49.64772796630859 42.99665832519531 47.77288818359375 45.38478088378906 45.38478088378906 C 47.77288818359375 42.99665832519531 49.64772796630859 40.21601104736328 50.95719909667969 37.12007141113281 C 52.31269836425781 33.91529846191406 53 30.51041984558105 53 27 C 53 23.48958015441895 52.31269836425781 20.08470153808594 50.95719909667969 16.87992858886719 C 49.64772796630859 13.78398895263672 47.77288818359375 11.00334167480469 45.38478088378906 8.615219116210938 C 42.99665832519531 6.22711181640625 40.21601104736328 4.352268218994141 37.12007141113281 3.042800903320312 C 33.91529846191406 1.687301635742188 30.51041984558105 1 27 1 M 27 0 C 41.91168975830078 0 54 12.08831024169922 54 27 C 54 41.91168975830078 41.91168975830078 54 27 54 C 12.08831024169922 54 0 41.91168975830078 0 27 C 0 12.08831024169922 12.08831024169922 0 27 0 Z" stroke="none" fill="rgba(230,228,228,0.8)"/>
      </g>
    </g>
    <circle id="Elipse_2259" data-name="Elipse 2259" cx="15" cy="15" r="15" transform="translate(12 12)" fill="#574b4f"/>
    <g id="api-svgrepo-com_2_" data-name="api-svgrepo-com (2)" transform="translate(16.5 16.504)">
      <path id="Trazado_10608" data-name="Trazado 10608" d="M17.747,15.122a2.533,2.533,0,0,0-1.312.374l-2.027-2.034a3.937,3.937,0,0,0,0-4.553l2.027-2.034a2.533,2.533,0,0,0,1.312.374,2.624,2.624,0,1,0-2.624-2.624A2.533,2.533,0,0,0,15.5,5.937L13.462,7.964a3.937,3.937,0,0,0-4.553,0L6.875,5.937a2.533,2.533,0,0,0,.374-1.312A2.624,2.624,0,1,0,4.624,7.249a2.533,2.533,0,0,0,1.312-.374L7.964,8.909a3.937,3.937,0,0,0,0,4.553L5.937,15.5a2.533,2.533,0,0,0-1.312-.374,2.624,2.624,0,1,0,2.624,2.624,2.533,2.533,0,0,0-.374-1.312l2.034-2.027a3.937,3.937,0,0,0,4.553,0L15.5,16.434a2.533,2.533,0,0,0-.374,1.312,2.624,2.624,0,1,0,2.624-2.624Z" transform="translate(-0.688 -0.688)" fill="#fff"/>
      <rect id="Rectángulo_18655" data-name="Rectángulo 18655" width="21" height="21" transform="translate(0 -0.004)" fill="none"/>
    </g>
  </g>
</svg>
