<svg xmlns="http://www.w3.org/2000/svg" width="508.661" height="135.243" viewBox="0 0 508.661 135.243">
  <g id="Capa_2" data-name="Capa 2" transform="translate(-766 -223.735)">
    <g id="Grupo_22958" data-name="Grupo 22958" transform="translate(766 223.735)">
      <g id="Grupo_22955" data-name="Grupo 22955" transform="translate(339.334 106.779)">
        <path id="Trazado_9853" data-name="Trazado 9853" d="M898.7,285.376c0,7.344-3.67,8.813-6.608,8.813-8.077,0-8.077-8.077-8.077-8.077V275.83h4.407v10.282a3.424,3.424,0,0,0,3.67,3.67c1.469,0,5.139-.732,5.139-4.407V275.83h4.406v17.626h-3.67l-.733-8.077h1.469Z" transform="translate(-857.576 -268.481)" fill="#fff"/>
        <path id="Trazado_9854" data-name="Trazado 9854" d="M1007.156,264.682a5.728,5.728,0,0,0-5.139,2.454V258.07H997.61v24.971h3.67l.219-2.644a5.661,5.661,0,0,0,5.656,3.376c6.608,0,8.077-5.139,8.077-9.546S1013.764,264.682,1007.156,264.682Zm-.732,14.689c-2.938,0-4.407-2.2-4.407-5.139s1.469-5.139,4.407-5.139,4.407,2.2,4.407,5.139S1009.361,279.371,1006.423,279.371Z" transform="translate(-924.166 -258.07)" fill="#fff"/>
        <g id="Grupo_22953" data-name="Grupo 22953" transform="translate(66.099 0)">
          <rect id="Rect치ngulo_16564" data-name="Rect치ngulo 16564" width="4.407" height="17.626" transform="translate(0 7.344)" fill="#fff"/>
          <rect id="Rect치ngulo_16565" data-name="Rect치ngulo 16565" width="4.407" height="4.407" fill="#fff"/>
        </g>
        <path id="Trazado_9855" data-name="Trazado 9855" d="M1054.343,274.05c-4.407,0-8.077,1.469-8.077,6.608h4.406c0-1.469.733-2.2,3.67-2.2,3.67,0,4.406.732,4.406,2.938v1.225c-1.179-1.01-3.1-1.225-5.875-1.225-5.875,0-7.344,2.938-7.344,5.876s1.469,5.875,7.344,5.875c2.578,0,5.155-.364,6.463-2.358l.149,1.626h3.67V281.4c0-6.608-4.406-7.344-8.813-7.344Zm0,15.421c-2.2,0-4.407,0-4.407-2.2s2.2-2.2,4.407-2.2,4.406,0,4.406,2.2S1056.548,289.471,1054.343,289.471Z" transform="translate(-952.259 -267.438)" fill="#fff"/>
        <g id="Grupo_22954" data-name="Grupo 22954" transform="translate(110.161)">
          <path id="Trazado_9856" data-name="Trazado 9856" d="M1090.78,261.03h1.25a1.219,1.219,0,0,1,.6.141.987.987,0,0,1,.406.385,1.1,1.1,0,0,1,.145.559.926.926,0,0,1-.207.588,1.226,1.226,0,0,1-.525.372v.033l.914,1.316v.037h-.74l-.885-1.287h-.3v1.287h-.645v-3.426Zm1.245,1.548a.515.515,0,0,0,.36-.132.485.485,0,0,0,.008-.674.473.473,0,0,0-.355-.141h-.608v.948h.6Z" transform="translate(-1088.947 -259.805)" fill="#fff"/>
          <path id="Trazado_9857" data-name="Trazado 9857" d="M1089.288,263.945a2.938,2.938,0,1,1,2.938-2.938A2.943,2.943,0,0,1,1089.288,263.945Zm0-5.387a2.449,2.449,0,1,0,2.449,2.45A2.452,2.452,0,0,0,1089.288,258.558Z" transform="translate(-1086.35 -258.07)" fill="#fff"/>
        </g>
        <path id="Trazado_9858" data-name="Trazado 9858" d="M839.205,258.07v18.682L826.118,258.07H820.11v24.971h4.407V263.581L837.6,283.041h6.012V258.07Z" transform="translate(-820.11 -258.07)" fill="#fff"/>
        <path id="Trazado_9859" data-name="Trazado 9859" d="M949.556,275.82h-5.875l-2.938,5.876-2.938-5.876H931.93l5.875,8.813-5.875,8.813h5.875l2.938-5.876,2.938,5.876h5.875l-5.875-8.813Z" transform="translate(-885.663 -268.476)" fill="#fff"/>
      </g>
      <path id="Trazado_9860" data-name="Trazado 9860" d="M1037.987,33.911A65.523,65.523,0,0,0,997.471,4.587,2.727,2.727,0,0,1,995.7,3.275c-.054-.1-.112-.2-.169-.29a6.324,6.324,0,1,0-2.028,8.706,6.631,6.631,0,0,0,.972-.741,2.836,2.836,0,0,1,2.66-.712,59.986,59.986,0,0,1,36.134,26.605,60.593,60.593,0,0,1-32,89.378h0v5.842h0A66.156,66.156,0,0,0,1037.992,33.9ZM958.371,8.828A6.318,6.318,0,0,0,946.719,11.5a2.853,2.853,0,0,1-1.25,2.106A65.789,65.789,0,0,0,919.94,45.62h5.975A60.226,60.226,0,0,1,948.37,18.361a2.745,2.745,0,0,1,2.458-.261,6.312,6.312,0,0,0,7.539-9.268Zm-3.989,5.561a2.618,2.618,0,1,1,.84-3.6A2.629,2.629,0,0,1,954.382,14.389Z" transform="translate(-539.299 -0.004)" fill="#fff"/>
      <path id="Trazado_9861" data-name="Trazado 9861" d="M1058.446,90.914a38.788,38.788,0,0,0-64.026-2.731h7.27a33.252,33.252,0,1,1,43.23,50.211h0v6.612h0c.364-.207.72-.422,1.072-.641a38.854,38.854,0,0,0,12.446-53.45Z" transform="translate(-582.962 -42.571)" fill="#fff"/>
      <g id="Grupo_22956" data-name="Grupo 22956" transform="translate(0 45.848)">
        <path id="Trazado_9862" data-name="Trazado 9862" d="M380.121,152.952c0-8.47-4.613-12.777-11.569-12.777s-11.871,4.386-11.871,13.307v22.91H349.8V134.957h6.881v5.9c2.723-4.311,7.713-6.653,13.307-6.653,9.6,0,16.935,5.9,16.935,17.767v24.425h-6.806v-23.44Z" transform="translate(-205.064 -124.522)" fill="#fff"/>
        <path id="Trazado_9863" data-name="Trazado 9863" d="M20.188,134.39c10.282,0,17.014,5.292,19.128,13.989H31.906c-1.436-4.99-5.594-8.168-11.718-8.168-7.56,0-13.158,5.367-13.158,15.5s5.594,15.653,13.158,15.653c6.124,0,10.208-2.95,11.718-8.168h7.411c-2.118,8.242-8.846,13.989-19.128,13.989C8.391,177.186,0,168.869,0,155.711S8.391,134.39,20.188,134.39Z" transform="translate(0 -124.633)" fill="#fff"/>
        <path id="Trazado_9864" data-name="Trazado 9864" d="M131.563,177.186c-11.722,0-20.643-8.317-20.643-21.475s9.223-21.321,20.945-21.321,20.945,8.242,20.945,21.321S143.359,177.186,131.563,177.186Zm0-6.049c7.183,0,14.217-4.916,14.217-15.425s-6.881-15.351-13.989-15.351-13.836,4.916-13.836,15.351S124.38,171.137,131.563,171.137Z" transform="translate(-65.025 -124.633)" fill="#fff"/>
        <path id="Trazado_9865" data-name="Trazado 9865" d="M264.4,152.952c0-8.47-4.613-12.777-11.569-12.777s-11.871,4.386-11.871,13.307v22.91H234.08V134.957h6.881v5.9c2.723-4.311,7.713-6.653,13.307-6.653,9.6,0,16.935,5.9,16.935,17.767v24.425H264.4v-23.44Z" transform="translate(-137.226 -124.522)" fill="#fff"/>
        <path id="Trazado_9866" data-name="Trazado 9866" d="M486.46,177.186c-11.8,0-20.49-8.317-20.49-21.475s8.391-21.321,20.49-21.321,19.886,8.47,19.886,19.811a36.868,36.868,0,0,1-.228,4.158H473c.53,8.391,6.426,13,13.46,13,6.2,0,10.133-3.174,11.643-7.638h7.41C503.4,171.286,496.742,177.186,486.46,177.186Zm-13.385-24.425h26.163c.074-8.089-5.975-12.55-13.079-12.55-6.728,0-12.326,4.46-13.079,12.55Z" transform="translate(-273.167 -124.633)" fill="#fff"/>
        <path id="Trazado_9867" data-name="Trazado 9867" d="M599.448,134.39c10.282,0,17.014,5.292,19.129,13.989h-7.411c-1.436-4.99-5.594-8.168-11.718-8.168-7.56,0-13.158,5.367-13.158,15.5s5.594,15.653,13.158,15.653c6.124,0,10.208-2.95,11.718-8.168h7.411c-2.119,8.242-8.846,13.989-19.129,13.989-11.8,0-20.188-8.317-20.188-21.474S587.651,134.39,599.448,134.39Z" transform="translate(-339.581 -124.633)" fill="#fff"/>
        <path id="Trazado_9868" data-name="Trazado 9868" d="M692.437,126.918H687.07v-5.673h5.367V110.81h6.881v10.435h10.812v5.673H699.318v24.425c0,4.084,1.514,5.52,5.747,5.52h5.064v5.822h-6.2c-7.336,0-11.494-3.025-11.494-11.341Z" transform="translate(-402.783 -110.81)" fill="#fff"/>
      </g>
      <g id="Grupo_22957" data-name="Grupo 22957" transform="translate(322.643 49.071)">
        <path id="Trazado_9869" data-name="Trazado 9869" d="M885.962,119.82H891.9l16.753,21.433L925.34,119.82h5.871a2.506,2.506,0,0,1,2.508,2.507v42.709a2.506,2.506,0,0,1-2.508,2.507H925.89V134.856L913.117,149.5a5.979,5.979,0,0,1-4.5,2.048h0a5.971,5.971,0,0,1-4.494-2.036L891.279,134.86v32.688h-5.321a2.506,2.506,0,0,1-2.507-2.507V122.332a2.506,2.506,0,0,1,2.507-2.507Z" transform="translate(-840.551 -119.315)" fill="#fff"/>
        <path id="Trazado_9870" data-name="Trazado 9870" d="M796.664,168.639c-9.545,0-16.894-5.218-16.894-13.667h8.379c.343,3.914,3.091,7.071,8.515,7.071s8.586-2.954,8.586-7.005c0-11.536-25.339-4.051-25.339-21.632,0-8.379,6.662-13.6,16.414-13.6,9.132,0,15.587,4.808,16.274,12.98h-8.652c-.273-3.227-3.091-6.182-8.035-6.318-4.531-.137-8.035,2.061-8.035,6.662,0,10.783,25.273,4.051,25.273,21.5,0,7.142-5.838,14.01-16.48,14.01Z" transform="translate(-779.77 -119.309)" fill="#fff"/>
        <path id="Trazado_9871" data-name="Trazado 9871" d="M1043.274,167.429c-9.546,0-16.894-5.218-16.894-13.667h8.379c.344,3.914,3.091,7.071,8.516,7.071s8.581-2.954,8.581-7.005c0-11.536-25.339-4.051-25.339-21.632,0-8.379,6.661-13.6,16.414-13.6,9.132,0,15.587,4.808,16.273,12.98h-8.651c-.273-3.227-3.091-6.182-8.036-6.318-4.531-.137-8.035,2.061-8.035,6.662,0,10.783,25.268,4.051,25.268,21.5,0,7.142-5.838,14.01-16.48,14.01Z" transform="translate(-924.341 -118.6)" fill="#fff"/>
      </g>
      <text id="Powered_by" data-name="Powered by" transform="translate(208.33 129.243)" fill="#fff" font-size="25" font-family="Myriad Pro"><tspan x="0" y="0" letter-spacing="-0.02em">P</tspan><tspan y="0">o</tspan><tspan y="0" letter-spacing="-0.01em">w</tspan><tspan y="0">ered by</tspan></text>
    </g>
  </g>
</svg>
