<svg xmlns="http://www.w3.org/2000/svg" width="168" height="46" viewBox="0 0 168 46">
  <g id="Grupo_22970" data-name="Grupo 22970" transform="translate(-22 -2.608)">
    <g id="Capa_2" data-name="Capa 2" transform="translate(28.272 4.6)">
      <g id="Grupo_22969" data-name="Grupo 22969" transform="translate(0 0)">
        <path id="Trazado_9891" data-name="Trazado 9891" d="M956.155,10.406a20.1,20.1,0,0,0-12.43-9,.836.836,0,0,1-.545-.4c-.016-.03-.034-.061-.052-.089a1.94,1.94,0,1,0-.622,2.671,2.035,2.035,0,0,0,.3-.227.87.87,0,0,1,.816-.218,18.4,18.4,0,0,1,11.085,8.162,18.589,18.589,0,0,1-9.817,27.42h0v1.792h0A20.3,20.3,0,0,0,956.157,10.4ZM931.73,2.711a1.938,1.938,0,0,0-3.575.82.876.876,0,0,1-.383.646A20.183,20.183,0,0,0,919.94,14h1.833a18.476,18.476,0,0,1,6.889-8.363.842.842,0,0,1,.754-.08,1.936,1.936,0,0,0,2.313-2.843Zm-1.224,1.706a.8.8,0,1,1,.258-1.106A.806.806,0,0,1,930.506,4.417Z" transform="translate(-803.165 -0.004)" fill="#fff"/>
        <path id="Trazado_9892" data-name="Trazado 9892" d="M1014.062,78.229a11.9,11.9,0,0,0-19.642-.838h2.23a10.2,10.2,0,1,1,13.262,15.4h0v2.028h0c.112-.063.221-.129.329-.2a11.92,11.92,0,0,0,3.818-16.4Z" transform="translate(-868.191 -63.398)" fill="#fff"/>
        <g id="Grupo_22966" data-name="Grupo 22966" transform="translate(0 14.065)">
          <path id="Trazado_9893" data-name="Trazado 9893" d="M359.1,139.953c0-2.6-1.415-3.92-3.549-3.92s-3.642,1.346-3.642,4.082v7.029H349.8V134.432h2.111v1.809a4.7,4.7,0,0,1,4.082-2.041c2.946,0,5.2,1.809,5.2,5.451v7.493H359.1v-7.191Z" transform="translate(-305.397 -131.231)" fill="#fff"/>
          <path id="Trazado_9894" data-name="Trazado 9894" d="M6.193,134.39c3.154,0,5.22,1.624,5.868,4.292H9.788a3.463,3.463,0,0,0-3.595-2.506c-2.319,0-4.037,1.646-4.037,4.755s1.716,4.8,4.037,4.8a3.409,3.409,0,0,0,3.595-2.506h2.273a5.655,5.655,0,0,1-5.868,4.292c-3.619,0-6.193-2.551-6.193-6.588S2.574,134.39,6.193,134.39Z" transform="translate(0 -131.397)" fill="#fff"/>
          <path id="Trazado_9895" data-name="Trazado 9895" d="M117.253,147.519c-3.6,0-6.333-2.551-6.333-6.588a6.427,6.427,0,1,1,12.851,0A6.316,6.316,0,0,1,117.253,147.519Zm0-1.856c2.2,0,4.362-1.508,4.362-4.732s-2.111-4.709-4.292-4.709-4.245,1.508-4.245,4.709S115.049,145.663,117.253,145.663Z" transform="translate(-96.84 -131.397)" fill="#fff"/>
          <path id="Trazado_9896" data-name="Trazado 9896" d="M243.382,139.953c0-2.6-1.415-3.92-3.549-3.92s-3.642,1.346-3.642,4.082v7.029H234.08V134.432h2.111v1.809a4.7,4.7,0,0,1,4.082-2.041c2.946,0,5.2,1.809,5.2,5.451v7.493h-2.088v-7.191Z" transform="translate(-204.366 -131.231)" fill="#fff"/>
          <path id="Trazado_9897" data-name="Trazado 9897" d="M472.256,147.519c-3.619,0-6.286-2.551-6.286-6.588s2.574-6.541,6.286-6.541a5.814,5.814,0,0,1,6.1,6.078,11.3,11.3,0,0,1-.07,1.276h-10.16a4,4,0,0,0,4.129,3.99,3.492,3.492,0,0,0,3.572-2.343H478.1a5.717,5.717,0,0,1-5.845,4.129Zm-4.106-7.493h8.026a3.73,3.73,0,0,0-4.013-3.85,3.936,3.936,0,0,0-4.013,3.85Z" transform="translate(-406.821 -131.397)" fill="#fff"/>
          <path id="Trazado_9898" data-name="Trazado 9898" d="M585.453,134.39c3.154,0,5.22,1.624,5.868,4.292h-2.273a3.463,3.463,0,0,0-3.595-2.506c-2.319,0-4.037,1.646-4.037,4.755s1.716,4.8,4.037,4.8a3.41,3.41,0,0,0,3.595-2.506h2.273a5.655,5.655,0,0,1-5.868,4.292c-3.619,0-6.193-2.551-6.193-6.588S581.834,134.39,585.453,134.39Z" transform="translate(-505.73 -131.397)" fill="#fff"/>
          <path id="Trazado_9899" data-name="Trazado 9899" d="M688.716,115.752H687.07v-1.74h1.646v-3.2h2.111v3.2h3.317v1.74h-3.317v7.493c0,1.253.465,1.693,1.763,1.693h1.554v1.786h-1.9c-2.251,0-3.526-.928-3.526-3.479v-7.493Z" transform="translate(-599.855 -110.81)" fill="#fff"/>
        </g>
        <g id="Grupo_22967" data-name="Grupo 22967" transform="translate(98.982 15.054)">
          <path id="Trazado_9900" data-name="Trazado 9900" d="M884.221,119.82h1.821l5.14,6.575,5.119-6.575h1.8a.769.769,0,0,1,.769.769v13.1a.769.769,0,0,1-.769.769H896.47V124.433l-3.918,4.494a1.835,1.835,0,0,1-1.381.628h0a1.832,1.832,0,0,1-1.378-.625l-3.94-4.5v10.028h-1.632a.769.769,0,0,1-.769-.769v-13.1a.769.769,0,0,1,.769-.769Z" transform="translate(-870.289 -119.665)" fill="#fff"/>
          <path id="Trazado_9901" data-name="Trazado 9901" d="M784.953,134.79c-2.928,0-5.183-1.6-5.183-4.193h2.57a2.35,2.35,0,0,0,2.612,2.169c1.664,0,2.634-.906,2.634-2.149,0-3.539-7.774-1.243-7.774-6.636,0-2.57,2.044-4.171,5.036-4.171,2.8,0,4.782,1.475,4.992,3.982h-2.654a2.291,2.291,0,0,0-2.465-1.938c-1.39-.042-2.465.632-2.465,2.044,0,3.308,7.753,1.243,7.753,6.594,0,2.191-1.791,4.3-5.056,4.3Z" transform="translate(-779.77 -119.656)" fill="#fff"/>
          <path id="Trazado_9902" data-name="Trazado 9902" d="M1031.563,133.58c-2.928,0-5.183-1.6-5.183-4.193h2.571a2.349,2.349,0,0,0,2.612,2.169c1.664,0,2.633-.906,2.633-2.149,0-3.539-7.774-1.243-7.774-6.636,0-2.57,2.044-4.171,5.036-4.171,2.8,0,4.782,1.475,4.993,3.982H1033.8a2.291,2.291,0,0,0-2.465-1.938c-1.39-.042-2.465.632-2.465,2.044,0,3.308,7.752,1.243,7.752,6.594,0,2.191-1.791,4.3-5.056,4.3Z" transform="translate(-995.076 -118.6)" fill="#fff"/>
        </g>
        <g id="Grupo_22968" data-name="Grupo 22968" transform="translate(118.122 31.86)">
          <path id="Trazado_9903" data-name="Trazado 9903" d="M970.8,254.98h-.985a19.48,19.48,0,0,1-1.427,1.688,19.7,19.7,0,0,1-1.607,1.516,19.317,19.317,0,0,1-5.743,3.34,18.971,18.971,0,0,1-2.166.656,19.269,19.269,0,0,1-2.265.4,19.611,19.611,0,0,1-4.693-.023,19.125,19.125,0,0,1-4.42-1.1,19.413,19.413,0,0,1-2.042-.915,18.965,18.965,0,0,1-1.909-1.137,19.647,19.647,0,0,1-1.759-1.342,19.286,19.286,0,0,1-1.593-1.531,19.67,19.67,0,0,1-1.41-1.7H937.8a20.194,20.194,0,0,0,1.475,1.856,20.646,20.646,0,0,0,1.678,1.671,20.3,20.3,0,0,0,3.892,2.71,19.914,19.914,0,0,0,2.178,1,20.459,20.459,0,0,0,2.308.743,19.819,19.819,0,0,0,2.419.463,20.357,20.357,0,0,0,7.451-.418,19.962,19.962,0,0,0,2.314-.72,20.228,20.228,0,0,0,6.1-3.653" transform="translate(-936.88 -254.343)" fill="#fff"/>
          <path id="Trazado_9904" data-name="Trazado 9904" d="M948.028,260.559h-.1a20.927,20.927,0,0,1-2.572-.17,20.589,20.589,0,0,1-9.145-3.534,20.827,20.827,0,0,1-3.624-3.21,20.864,20.864,0,0,1-1.509-1.9l-.531-.754,2.147.01.142.192a18.937,18.937,0,0,0,1.376,1.66,18.944,18.944,0,0,0,5.132,3.911,18.737,18.737,0,0,0,1.992.892,18.953,18.953,0,0,0,8.889,1.1,18.76,18.76,0,0,0,6.322-1.907,18.92,18.92,0,0,0,5.169-3.86,19.354,19.354,0,0,0,1.392-1.648l.143-.192,1.224.006-.005.952-.748,0a19.528,19.528,0,0,1-1.316,1.538c-.416.439-.856.863-1.311,1.264l.505.58a20.753,20.753,0,0,1-4.01,2.735,20.433,20.433,0,0,1-2.239,1,20.519,20.519,0,0,1-4.85,1.188,20.865,20.865,0,0,1-2.475.146Z" transform="translate(-930.55 -250.99)" fill="#fff"/>
        </g>
      </g>
    </g>
    <rect id="Rectángulo_16569" data-name="Rectángulo 16569" width="168" height="46" transform="translate(22 2.608)" fill="none"/>
  </g>
</svg>
