<svg id="Icon-dark-theme" xmlns="http://www.w3.org/2000/svg" width="24" height="24" viewBox="0 0 24 24">
  <rect id="Rectángulo_11069" data-name="Rectángulo 11069" width="24" height="24" fill="none"/>
  <path id="billingstatementdollarmajor-svgrepo-com" d="M4.81,0H18.085A1.707,1.707,0,0,1,19.9,1.581v19.21a.212.212,0,0,1-.144.193.269.269,0,0,1-.26-.037l-2.006-1.595a.669.669,0,0,0-.812,0l-2,1.592a.669.669,0,0,1-.812,0l-2-1.592a.669.669,0,0,0-.813,0l-2,1.592a.669.669,0,0,1-.812,0l-2-1.592a.669.669,0,0,0-.812,0L3.4,20.946a.269.269,0,0,1-.26.038A.212.212,0,0,1,3,20.791V1.581A1.707,1.707,0,0,1,4.81,0ZM9.887,11.9a2.816,2.816,0,0,0,1.588.745A1.131,1.131,0,0,0,12.654,11.6c0-.681-.154-.792-1.5-1.086h0c-1.244-.272-3.326-.727-3.326-3.131a3.216,3.216,0,0,1,2.414-2.967v-.2a1.138,1.138,0,0,1,1.207-1.054,1.138,1.138,0,0,1,1.207,1.054v.211a5.588,5.588,0,0,1,2.06,1.152.962.962,0,0,1,0,1.491,1.334,1.334,0,0,1-1.707,0,2.817,2.817,0,0,0-1.589-.745,1.13,1.13,0,0,0-1.178,1.054c0,.681.153.792,1.5,1.086h0c1.243.272,3.326.727,3.326,3.131a3.218,3.218,0,0,1-2.414,2.967v.2a1.138,1.138,0,0,1-1.207,1.054,1.138,1.138,0,0,1-1.207-1.054v-.211A5.564,5.564,0,0,1,8.181,13.4a.962.962,0,0,1,0-1.491,1.334,1.334,0,0,1,1.707,0Z" transform="translate(0.553 1.459)" fill="#644b52" fill-rule="evenodd"/>
</svg>
