<svg width="24" height="24" viewBox="0 0 24 24" fill="none" xmlns="http://www.w3.org/2000/svg">
<g clip-path="url(#clip0_103_2230)">
<path d="M12 10.621C12.3978 10.621 12.7794 10.779 13.0607 11.0603C13.342 11.3416 13.5 11.7232 13.5 12.121V16.621C13.5 17.0188 13.342 17.4004 13.0607 17.6817C12.7794 17.963 12.3978 18.121 12 18.121C11.6022 18.121 11.2206 17.963 10.9393 17.6817C10.658 17.4004 10.5 17.0188 10.5 16.621V12.121C10.5 11.7232 10.658 11.3416 10.9393 11.0603C11.2206 10.779 11.6022 10.621 12 10.621Z" fill="#8F4D63"/>
<path d="M12 6.014C12.3461 6.014 12.6845 6.11664 12.9722 6.30893C13.26 6.50122 13.4843 6.77453 13.6168 7.0943C13.7492 7.41407 13.7839 7.76594 13.7164 8.10541C13.6489 8.44488 13.4822 8.7567 13.2374 9.00144C12.9927 9.24618 12.6809 9.41285 12.3414 9.48037C12.0019 9.5479 11.6501 9.51324 11.3303 9.38079C11.0105 9.24834 10.7372 9.02403 10.5449 8.73625C10.3526 8.44846 10.25 8.11012 10.25 7.764C10.25 7.29987 10.4344 6.85475 10.7626 6.52656C11.0908 6.19837 11.5359 6.014 12 6.014Z" fill="#8F4D63"/>
<path fill-rule="evenodd" clip-rule="evenodd" d="M12 2C13.9778 2 15.9112 2.58649 17.5557 3.6853C19.2002 4.78412 20.4819 6.3459 21.2388 8.17317C21.9957 10.0004 22.1937 12.0111 21.8079 13.9509C21.422 15.8907 20.4696 17.6725 19.0711 19.0711C17.6725 20.4696 15.8907 21.422 13.9509 21.8079C12.0111 22.1937 10.0004 21.9957 8.17317 21.2388C6.3459 20.4819 4.78412 19.2002 3.6853 17.5557C2.58649 15.9112 2 13.9778 2 12C2 9.34784 3.05357 6.8043 4.92893 4.92893C6.8043 3.05357 9.34784 2 12 2ZM12 3.818C10.3818 3.818 8.79985 4.29787 7.45432 5.19692C6.1088 6.09597 5.06009 7.37382 4.44082 8.86888C3.82154 10.3639 3.65951 12.0091 3.97521 13.5962C4.29092 15.1834 5.07018 16.6413 6.21445 17.7855C7.35873 18.9298 8.81662 19.7091 10.4038 20.0248C11.9909 20.3405 13.6361 20.1785 15.1311 19.5592C16.6262 18.9399 17.904 17.8912 18.8031 16.5457C19.7021 15.2002 20.182 13.6182 20.182 12C20.182 9.83 19.32 7.74887 17.7855 6.21445C16.2511 4.68003 14.17 3.818 12 3.818Z" fill="#8F4D63"/>
</g>
<defs>
<clipPath id="clip0_103_2230">
<rect width="24" height="24" fill="white"/>
</clipPath>
</defs>
</svg>
