<svg xmlns="http://www.w3.org/2000/svg" width="14" height="14" viewBox="0 0 14 14">
  <g id="CHEVRON_USER" data-name="CHEVRON USER" transform="translate(-1094 -31)">
    <g id="Trazado_9800" data-name="Trazado 9800" transform="translate(1094 31)" fill="#807d7e">
      <path d="M 7 13.5 C 3.415889978408813 13.5 0.5 10.58411026000977 0.5 7 C 0.5 3.415889978408813 3.415889978408813 0.5 7 0.5 C 10.58411026000977 0.5 13.5 3.415889978408813 13.5 7 C 13.5 10.58411026000977 10.58411026000977 13.5 7 13.5 Z" stroke="none"/>
      <path d="M 7 1 C 3.691590309143066 1 1 3.691590309143066 1 7 C 1 10.30840969085693 3.691590309143066 13 7 13 C 10.30840969085693 13 13 10.30840969085693 13 7 C 13 3.691590309143066 10.30840969085693 1 7 1 M 7 0 C 10.86598968505859 0 14 3.134010314941406 14 7 C 14 10.86598968505859 10.86598968505859 14 7 14 C 3.134010314941406 14 0 10.86598968505859 0 7 C 0 3.134010314941406 3.134010314941406 0 7 0 Z" stroke="none" fill="#240f17"/>
    </g>
    <g id="icon-punta-flecha-bottom" transform="translate(1095 32)">
      <path id="Trazado_1302" data-name="Trazado 1302" d="M-4541.75,89a.748.748,0,0,1-.53-.22l-2.5-2.5a.75.75,0,0,1,0-1.061.749.749,0,0,1,1.06,0l1.97,1.97,1.97-1.97a.749.749,0,0,1,1.06,0,.75.75,0,0,1,0,1.061l-2.5,2.5A.749.749,0,0,1-4541.75,89Z" transform="translate(4547.75 -80.75)" fill="#eae4e5"/>
      <rect id="Rectángulo_10966" data-name="Rectángulo 10966" width="12" height="12" fill="none"/>
    </g>
  </g>
</svg>
