<svg xmlns="http://www.w3.org/2000/svg" width="48" height="48" viewBox="0 0 48 48">
  <path id="Trazado_10487" data-name="Trazado 10487" d="M20.312,5.6a7.532,7.532,0,0,1,12.258,0l.478.67A2.51,2.51,0,0,0,35.369,7.3L37.5,7.064a7.532,7.532,0,0,1,8.318,8.318l-.237,2.132a2.511,2.511,0,0,0,1.036,2.32l.67.478a7.532,7.532,0,0,1,0,12.258l-.67.478a2.51,2.51,0,0,0-1.036,2.32l.237,2.132A7.532,7.532,0,0,1,37.5,45.818l-2.132-.237a2.51,2.51,0,0,0-2.32,1.036l-.478.67a7.532,7.532,0,0,1-12.258,0l-.478-.67a2.511,2.511,0,0,0-2.32-1.036l-2.132.237A7.532,7.532,0,0,1,7.064,37.5L7.3,35.369a2.51,2.51,0,0,0-1.036-2.32L5.6,32.57a7.532,7.532,0,0,1,0-12.258l.67-.478A2.511,2.511,0,0,0,7.3,17.513l-.237-2.132a7.532,7.532,0,0,1,8.318-8.318l2.132.237a2.511,2.511,0,0,0,2.32-1.036ZM35.748,19.644a2.511,2.511,0,0,1,0,3.551L26.16,32.783a3.153,3.153,0,0,1-4.46,0l-4.567-4.567a2.511,2.511,0,0,1,3.551-3.551l3.246,3.246L32.2,19.644A2.511,2.511,0,0,1,35.748,19.644Z" transform="translate(-2.441 -2.441)" fill="#ba8798" fill-rule="evenodd"/>
</svg>
