<svg xmlns="http://www.w3.org/2000/svg" width="124.339" height="43.131" viewBox="0 0 124.339 43.131">
  <g id="Grupo_26954" data-name="Grupo 26954" transform="translate(-780.568 -335.397)">
    <g id="Capa_2" data-name="Capa 2" transform="translate(780.568 335.397)">
      <g id="Capa_2-2" data-name="Capa 2" transform="translate(0 0)">
        <g id="Grupo_22958" data-name="Grupo 22958">
          <path id="Trazado_9860" data-name="Trazado 9860" d="M277.054,11.028A21.317,21.317,0,0,0,263.87,1.486a.891.891,0,0,1-.575-.426c-.017-.031-.038-.066-.055-.094a2.058,2.058,0,1,0-.662,2.834h0a1.957,1.957,0,0,0,.315-.243.927.927,0,0,1,.866-.232,19.507,19.507,0,0,1,11.756,8.655A19.709,19.709,0,0,1,265.1,41.057h0v1.9h0A21.521,21.521,0,0,0,277.05,11.025h0Zm-25.9-8.16a2.055,2.055,0,0,0-3.79.87.935.935,0,0,1-.405.686,21.428,21.428,0,0,0-8.305,10.415h1.944A19.6,19.6,0,0,1,247.9,5.97a.908.908,0,0,1,.8-.087,2.056,2.056,0,0,0,2.453-3.018h0Zm-1.3,1.809a.852.852,0,1,1,.27-1.175h0a.853.853,0,0,1-.274,1.171h0Z" transform="translate(-155.963 0.006)" fill="#fff"/>
          <path id="Trazado_9861" data-name="Trazado 9861" d="M289.483,34.73a12.135,12.135,0,0,0-20.033-.852h2.273a10.4,10.4,0,1,1,13.526,15.706h0v2.068h0c.114-.066.225-.132.336-.2A12.154,12.154,0,0,0,289.48,34.73h0Z" transform="translate(-176.091 -18.949)" fill="#fff"/>
          <g id="Grupo_22956" data-name="Grupo 22956" transform="translate(0 14.831)">
            <path id="Trazado_9862" data-name="Trazado 9862" d="M155.245,58.983c0-2.935-1.6-4.428-4.009-4.428s-4.113,1.521-4.113,4.612V67.1H144.74V52.75h2.384v2.044a5.3,5.3,0,0,1,4.612-2.3c3.326,0,5.866,2.044,5.866,6.157v8.464h-2.36V58.99h0Z" transform="translate(-94.591 -49.133)" fill="#fff"/>
            <path id="Trazado_9863" data-name="Trazado 9863" d="M7,52.56c3.562,0,5.894,1.833,6.628,4.847H11.056A3.912,3.912,0,0,0,7,54.577c-2.619,0-4.56,1.861-4.56,5.37S4.373,65.369,7,65.369a3.852,3.852,0,0,0,4.061-2.831h2.567A6.389,6.389,0,0,1,7,67.386c-4.088,0-7-2.883-7-7.439S2.907,52.56,7,52.56Z" transform="translate(0 -49.178)" fill="#fff"/>
            <path id="Trazado_9864" data-name="Trazado 9864" d="M53.051,67.379c-4.061,0-7.151-2.883-7.151-7.442a7.256,7.256,0,1,1,14.511,0,7.135,7.135,0,0,1-7.363,7.442Zm0-2.1c2.488,0,4.927-1.7,4.927-5.346s-2.384-5.318-4.847-5.318-4.8,1.7-4.8,5.318,2.224,5.343,4.716,5.343h0Z" transform="translate(-29.997 -49.172)" fill="#fff"/>
            <path id="Trazado_9865" data-name="Trazado 9865" d="M107.355,58.983c0-2.935-1.6-4.428-4.009-4.428s-4.113,1.521-4.113,4.612V67.1H96.85V52.75h2.384v2.044a5.3,5.3,0,0,1,4.612-2.3c3.326,0,5.866,2.044,5.866,6.157v8.464h-2.356V58.99h0Z" transform="translate(-63.293 -49.133)" fill="#fff"/>
            <path id="Trazado_9866" data-name="Trazado 9866" d="M199.9,67.379c-4.088,0-7.1-2.883-7.1-7.442s2.907-7.387,7.1-7.387a6.567,6.567,0,0,1,6.891,6.864,12.517,12.517,0,0,1-.08,1.441H195.236a4.513,4.513,0,0,0,4.664,4.5,3.94,3.94,0,0,0,4.033-2.647H206.5a6.453,6.453,0,0,1-6.6,4.664Zm-4.636-8.461h9.064A4.214,4.214,0,0,0,199.8,54.57a4.444,4.444,0,0,0-4.532,4.348Z" transform="translate(-125.999 -49.172)" fill="#fff"/>
            <path id="Trazado_9867" data-name="Trazado 9867" d="M246.675,52.56c3.562,0,5.894,1.833,6.628,4.847h-2.567a3.912,3.912,0,0,0-4.061-2.831c-2.619,0-4.56,1.861-4.56,5.37s1.937,5.422,4.56,5.422a3.852,3.852,0,0,0,4.061-2.831H253.3a6.389,6.389,0,0,1-6.628,4.847c-4.088,0-7-2.883-7-7.439S242.587,52.56,246.675,52.56Z" transform="translate(-156.636 -49.178)" fill="#fff"/>
            <path id="Trazado_9868" data-name="Trazado 9868" d="M286.141,48.382H284.28V46.417h1.861V42.8h2.384v3.614h3.745v1.965h-3.745v8.461c0,1.414.523,1.913,1.992,1.913h1.753v2.017h-2.148c-2.543,0-3.981-1.046-3.981-3.929V48.375Z" transform="translate(-185.783 -42.8)" fill="#fff"/>
          </g>
          <g id="Grupo_22955" data-name="Grupo 22955" transform="translate(72.507 35.596)">
            <path id="Trazado_9853" data-name="Trazado 9853" d="M235.913,111.736c0,2.152-1.074,2.581-1.937,2.581a2.318,2.318,0,0,1-2.366-2.366V108.94H232.9v3.011a1,1,0,0,0,.925,1.074,1.069,1.069,0,0,0,.149,0c.43,0,1.5-.215,1.5-1.289v-2.8h1.289V114.1h-1.074l-.215-2.366h.43Z" transform="translate(-223.87 -106.788)" fill="#fff"/>
            <path id="Trazado_9854" data-name="Trazado 9854" d="M274.143,104.667a1.674,1.674,0,0,0-1.5.717V102.73H271.35v7.314h1.074l.066-.773a1.654,1.654,0,0,0,1.656.987c1.937,0,2.366-1.5,2.366-2.8s-.43-2.8-2.366-2.8Zm-.211,4.3c-.859,0-1.289-.644-1.289-1.5s.43-1.5,1.289-1.5,1.289.644,1.289,1.5-.43,1.5-1.292,1.5h0Z" transform="translate(-249.841 -102.73)" fill="#fff"/>
            <g id="Grupo_22953" data-name="Grupo 22953" transform="translate(19.358 0)">
              <rect id="Rect치ngulo_16564" data-name="Rect치ngulo 16564" width="1.289" height="5.163" transform="translate(0 2.152)" fill="#fff"/>
              <rect id="Rect치ngulo_16565" data-name="Rect치ngulo 16565" width="1.289" height="1.289" fill="#fff"/>
            </g>
            <path id="Trazado_9855" data-name="Trazado 9855" d="M290.668,108.32c-1.289,0-2.366.43-2.366,1.937h1.289c0-.43.215-.644,1.074-.644,1.074,0,1.289.215,1.289.859v.36a2.685,2.685,0,0,0-1.722-.36c-1.722,0-2.152.859-2.152,1.722s.43,1.722,2.152,1.722a2.123,2.123,0,0,0,1.892-.69l.045.475h1.074v-3.226c0-1.937-1.289-2.152-2.581-2.152h0Zm0,4.515c-.644,0-1.289,0-1.289-.644s.644-.644,1.289-.644,1.289,0,1.289.644-.645.644-1.289.644Z" transform="translate(-260.774 -106.383)" fill="#fff"/>
            <g id="Grupo_22954" data-name="Grupo 22954" transform="translate(32.261 0.003)">
              <path id="Trazado_9856" data-name="Trazado 9856" d="M303.93,103.77h.367a.39.39,0,0,1,.177.042.288.288,0,0,1,.118.114.334.334,0,0,1,.042.163.283.283,0,0,1-.059.173.362.362,0,0,1-.152.107v.01l.267.385v.01h-.218l-.26-.378h-.087v.378h-.191v-1Zm.364.45a.16.16,0,0,0,.1-.038.138.138,0,0,0,0-.2.147.147,0,0,0-.1-.042h-.177v.277Z" transform="translate(-303.393 -103.413)" fill="#fff"/>
              <path id="Trazado_9857" data-name="Trazado 9857" d="M303.239,104.459a.859.859,0,1,1,.859-.859h0A.859.859,0,0,1,303.239,104.459Zm0-1.58a.717.717,0,1,0,.717.717A.719.719,0,0,0,303.239,102.879Z" transform="translate(-302.38 -102.74)" fill="#fff"/>
            </g>
            <path id="Trazado_9858" data-name="Trazado 9858" d="M214.862,102.73V108.2l-3.832-5.471h-1.76v7.314h1.289v-5.7l3.832,5.7h1.76V102.73Z" transform="translate(-209.27 -102.73)" fill="#fff"/>
            <path id="Trazado_9859" data-name="Trazado 9859" d="M253.533,108.94h-1.722l-.859,1.722-.859-1.722H248.37l1.722,2.581L248.37,114.1h1.722l.859-1.722.859,1.722h1.722l-1.722-2.581Z" transform="translate(-234.823 -106.788)" fill="#fff"/>
          </g>
        </g>
      </g>
    </g>
  </g>
</svg>
