<?xml version="1.0" encoding="UTF-8"?>
<svg id="Capa_2" data-name="Capa 2" xmlns="http://www.w3.org/2000/svg" viewBox="0 0 200.61 160.5">
  <defs>
    <style>
      .cls-1 {
        fill: #5b4c64;
      }

      .cls-1, .cls-2, .cls-3 {
        stroke-width: 0px;
      }

      .cls-2 {
        fill: #5c4d65;
      }

      .cls-3 {
        fill: #fff;
      }
    </style>
  </defs>
  <g id="Capa_8" data-name="Capa 8">
    <g>
      <rect class="cls-3" x="33.84" y="44.73" width="162.77" height="111.77" rx="13.85" ry="13.85"/>
      <path class="cls-3" d="M177.37,160.5H53.08c-12.82,0-23.24-10.43-23.24-23.24V63.97c0-12.82,10.43-23.24,23.24-23.24h124.29c12.82,0,23.24,10.43,23.24,23.24v73.28c0,12.82-10.43,23.24-23.24,23.24ZM53.08,48.73c-8.4,0-15.24,6.84-15.24,15.24v73.28c0,8.4,6.84,15.24,15.24,15.24h124.29c8.4,0,15.24-6.84,15.24-15.24V63.97c0-8.4-6.84-15.24-15.24-15.24H53.08Z"/>
      <g>
        <rect class="cls-3" x="4" y="4" width="162.77" height="111.77" rx="15.56" ry="15.56"/>
        <path class="cls-2" d="M151.22,119.77H19.56c-10.8,0-19.56-8.76-19.56-19.56V19.56C0,8.76,8.76,0,19.56,0h131.66c10.8,0,19.56,8.76,19.56,19.56v80.65c0,10.8-8.76,19.56-19.56,19.56ZM19.56,8c-6.38,0-11.56,5.17-11.56,11.56v80.65c0,6.38,5.17,11.56,11.56,11.56h131.66c6.38,0,11.56-5.17,11.56-11.56V19.56c0-6.38-5.17-11.56-11.56-11.56H19.56Z"/>
      </g>
      <circle class="cls-1" cx="84.54" cy="59.57" r="14.17"/>
    </g>
  </g>
</svg>