<svg xmlns="http://www.w3.org/2000/svg" width="46" height="46" viewBox="0 0 46 46">
  <g id="Grupo_26924" data-name="Grupo 26924" transform="translate(-713 -155.82)">
    <path id="Trazado_10347" data-name="Trazado 10347" d="M23,0A23,23,0,1,1,0,23,23,23,0,0,1,23,0Z" transform="translate(713 155.82)" fill="#796e71"/>
    <path id="house-svgrepo-com" d="M12.965,1.234a1.214,1.214,0,0,1,1.434,0L24.913,9.022a1.094,1.094,0,0,1,.451.878V22.7a1.712,1.712,0,0,1-1.752,1.669H17.187v-8.9a1.141,1.141,0,0,0-1.168-1.113H11.346a1.141,1.141,0,0,0-1.168,1.113v8.9H3.752A1.712,1.712,0,0,1,2,22.7V9.9a1.094,1.094,0,0,1,.451-.878Z" transform="translate(722.318 164.636)" fill="#fff"/>
  </g>
</svg>
