<svg id="Icon-trash" xmlns="http://www.w3.org/2000/svg" width="25.253" height="24.207" viewBox="0 0 25.253 24.207">
  <rect id="Rectángulo_11002" data-name="Rectángulo 11002" width="24" height="24" transform="translate(0 0)" fill="none"/>
  <g id="Grupo_26922" data-name="Grupo 26922" transform="translate(-0.091 -0.652)">
    <g id="Grupo_26916" data-name="Grupo 26916" transform="translate(1.23 0.652)">
      <ellipse id="Elipse_2226" data-name="Elipse 2226" cx="8.795" cy="8.794" rx="8.795" ry="8.794" transform="translate(0.455 0.456)" fill="#574B4F"/>
      <path id="Trazado_10340" data-name="Trazado 10340" d="M36.35,42.34a9.25,9.25,0,1,1,9.25-9.251,9.26,9.26,0,0,1-9.25,9.251Zm0-17.441a8.19,8.19,0,1,0,8.191,8.19A8.2,8.2,0,0,0,36.35,24.9Z" transform="translate(-27.1 -23.84)" fill="#f2ebed"/>
    </g>
    <g id="Grupo_26917" data-name="Grupo 26917" transform="translate(3.734 3.191)">
      <path id="Trazado_10528" data-name="Trazado 10528" d="M8.706,0a8.824,8.824,0,0,1,8.706,8.937,8.824,8.824,0,0,1-8.706,8.937A8.824,8.824,0,0,1,0,8.937,8.824,8.824,0,0,1,8.706,0Z" transform="translate(0.455 0.455)" fill="#574B4F"/>
      <path id="Trazado_10341" data-name="Trazado 10341" d="M68.8,69.55a9.25,9.25,0,1,1,9.25-9.25A9.26,9.26,0,0,1,68.8,69.55Zm0-17.442A8.191,8.191,0,1,0,76.991,60.3,8.2,8.2,0,0,0,68.8,52.108Z" transform="translate(-59.55 -51.05)" fill="#f2ebed"/>
    </g>
    <g id="Grupo_26919" data-name="Grupo 26919" transform="translate(6.844 6.359)">
      <g id="Grupo_26918" data-name="Grupo 26918">
        <ellipse id="Elipse_2228" data-name="Elipse 2228" cx="9.159" cy="9.134" rx="9.159" ry="9.134" transform="translate(0.091 0.115)" fill="#f2ebed"/>
        <path id="Trazado_10342" data-name="Trazado 10342" d="M99.24,97.53a9.25,9.25,0,1,1,9.25-9.25,9.261,9.261,0,0,1-9.25,9.25Zm0-18.23a8.979,8.979,0,1,0,9.035,8.979A9.016,9.016,0,0,0,99.24,79.3Z" transform="translate(-89.99 -79.03)" fill="none"/>
      </g>
      <path id="Trazado_10343" data-name="Trazado 10343" d="M117.392,98.27a8.266,8.266,0,1,1-8.266-8.24,8.253,8.253,0,0,1,8.266,8.24Zm-5.058,1.826a2.328,2.328,0,0,0-.581-1.537v0a3.189,3.189,0,0,0-.873-.692l0,0a3.661,3.661,0,0,0-.9-.326h0a3.935,3.935,0,0,0-.83-.086,3.13,3.13,0,0,1-.5-.038,1.877,1.877,0,0,1-.516-.165h0a1.243,1.243,0,0,1-.387-.311h0a.772.772,0,0,1-.183-.459.78.78,0,0,1,.44-.656,2.254,2.254,0,0,1,1.159-.31,2.342,2.342,0,0,1,.408.069l.052.011a2.582,2.582,0,0,1,.494.173,1.4,1.4,0,0,1,.4.271.826.826,0,0,0,1.218-1.115c-.016-.017-.033-.035-.05-.05a3.047,3.047,0,0,0-.888-.609,4.177,4.177,0,0,0-.82-.279h0l-.009,0v-.818a.827.827,0,0,0-1.653-.059v.854a3.724,3.724,0,0,0-1.19.472,2.421,2.421,0,0,0-1.21,2.047,2.388,2.388,0,0,0,.552,1.5,2.845,2.845,0,0,0,.934.747,3.5,3.5,0,0,0,.983.317,4.654,4.654,0,0,0,.768.061,2.368,2.368,0,0,1,.48.048,2.033,2.033,0,0,1,.488.174,1.507,1.507,0,0,1,.4.32.7.7,0,0,1,.172.453c0,.1,0,.337-.4.6a2.278,2.278,0,0,1-1.182.327,3.75,3.75,0,0,1-.516-.062,2.452,2.452,0,0,1-.479-.154h0a1,1,0,0,1-.372-.286.826.826,0,0,0-1.27,1.056l.02.023a2.631,2.631,0,0,0,1.01.737,3.949,3.949,0,0,0,.808.246h.008v.815a.827.827,0,0,0,1.653.059v-.881a3.746,3.746,0,0,0,1.221-.5,2.3,2.3,0,0,0,1.155-1.977v0Z" transform="translate(-99.87 -89.028)" fill="#574B4F"/>
    </g>
  </g>
</svg>
