<svg xmlns="http://www.w3.org/2000/svg" width="24" height="24" viewBox="0 0 24 24">
  <g id="Icon-not-show-pass" opacity="0.9">
    <path id="Uni칩n_22" data-name="Uni칩n 22" d="M47.292-241.3l-3.136-3.136A10.425,10.425,0,0,1,39-243.007a10.807,10.807,0,0,1-6.87-2.62,10.668,10.668,0,0,1-2.09-2.31,5.617,5.617,0,0,1-1.04-3.07,5.685,5.685,0,0,1,1.03-3.07,10.987,10.987,0,0,1,2.091-2.31l.043-.036L29.292-259.3a1,1,0,0,1,0-1.41,1,1,0,0,1,1.41,0l18,18a1,1,0,0,1,0,1.41.984.984,0,0,1-.7.29A1.024,1.024,0,0,1,47.292-241.3ZM32-251.007c0,1.54,3.13,5,7,5a7.141,7.141,0,0,0,2.925-.654L40.291-248.3a2.981,2.981,0,0,1-1.289.291,3,3,0,0,1-3-3,2.983,2.983,0,0,1,.29-1.289L34.3-254.285C32.888-253.189,32-251.829,32-251.007Zm12.981,2.06a3.7,3.7,0,0,0,1.02-2.06c0-1.54-3.13-5-7-5a6.727,6.727,0,0,0-1.01.08l-2.44-2.45a10.05,10.05,0,0,1,3.45-.63,10.809,10.809,0,0,1,6.881,2.63,10.714,10.714,0,0,1,2.09,2.31A5.649,5.649,0,0,1,49.012-251a5.649,5.649,0,0,1-1.039,3.07,10.687,10.687,0,0,1-.86,1.11Z" transform="translate(-27.003 263.008)" fill="#574b4f"/>
    <rect id="Rect치ngulo_10971" data-name="Rect치ngulo 10971" width="24" height="24" fill="none"/>
  </g>
</svg>
