<svg xmlns="http://www.w3.org/2000/svg" width="24" height="24" viewBox="0 0 24 24">
  <g id="Icon-trash" opacity="0.8">
    <g id="Grupo_17238" data-name="Grupo 17238" transform="translate(4 1)">
      <path id="Trazado_4271" data-name="Trazado 4271" d="M50,87.9a1.6,1.6,0,0,0,1.6,1.6H62.4A1.6,1.6,0,0,0,64,87.9V75H50ZM53,78h8v8.5H53Z" transform="translate(-49 -68.5)" fill="rgba(50,16,26,0.8)"/>
      <path id="Trazado_4272" data-name="Trazado 4272" d="M54.5,11.5H52A1.5,1.5,0,0,0,50.5,10h-5A1.5,1.5,0,0,0,44,11.5H41.5a1.5,1.5,0,0,0,0,3h13a1.5,1.5,0,0,0,0-3Z" transform="translate(-40 -10)" fill="rgba(50,16,26,0.8)"/>
    </g>
    <rect id="Rectángulo_11002" data-name="Rectángulo 11002" width="24" height="24" fill="none"/>
  </g>
</svg>
