<svg xmlns="http://www.w3.org/2000/svg" width="27.137" height="26.527" viewBox="0 0 27.137 26.527">
  <g id="Capa_4" data-name="Capa 4" transform="translate(0.605 1.155)">
    <g id="Grupo_26364" data-name="Grupo 26364">
      <g id="Grupo_26359" data-name="Grupo 26359" transform="translate(-0.779 -1)">
        <rect id="Rectángulo_18027" data-name="Rectángulo 18027" width="11.389" height="11.058" rx="2" transform="matrix(1, -0.017, 0.017, 1, 0.174, 0.044)" fill="#6f565e"/>
      </g>
      <g id="Grupo_26365" data-name="Grupo 26365" transform="translate(14.777 -1)">
        <rect id="Rectángulo_18027-2" data-name="Rectángulo 18027" width="11.389" height="11.058" rx="2" transform="matrix(1, -0.017, 0.017, 1, 0.174, 0.044)" fill="#6f565e"/>
      </g>
      <g id="Grupo_26366" data-name="Grupo 26366" transform="translate(-0.779 14.271)">
        <rect id="Rectángulo_18027-3" data-name="Rectángulo 18027" width="11.389" height="11.058" rx="2" transform="matrix(1, -0.017, 0.017, 1, 0.174, 0.044)" fill="#6f565e"/>
      </g>
    </g>
    <g id="Grupo_26369" data-name="Grupo 26369" transform="translate(15.465 14.505)">
      <g id="Grupo_26355" data-name="Grupo 26355" transform="translate(10.516 4.102) rotate(90)">
        <rect id="Rectángulo_18026" data-name="Rectángulo 18026" width="1.147" height="9.328" rx="0.574" transform="translate(0.595 0.592)" fill="#6f565e" stroke="#70565e" stroke-width="0.5"/>
        <path id="Trazado_10032" data-name="Trazado 10032" d="M1.169,10.516A1.161,1.161,0,0,1,0,9.367V1.148A1.16,1.16,0,0,1,1.169,0,1.159,1.159,0,0,1,2.337,1.148V9.367a1.16,1.16,0,0,1-1.169,1.148Z" transform="translate(0 0)" fill="#6f565e" stroke="#70565e" stroke-width="0.5"/>
      </g>
      <g id="Grupo_26356" data-name="Grupo 26356" transform="translate(4.088 0.001)">
        <rect id="Rectángulo_18026-2" data-name="Rectángulo 18026" width="1.147" height="9.35" rx="0.574" transform="translate(0.595 0.595)" fill="#6f565e" stroke="#70565e" stroke-width="0.5"/>
        <path id="Trazado_10032-2" data-name="Trazado 10032" d="M146.369,120.31a1.162,1.162,0,0,1-1.169-1.151v-8.238a1.169,1.169,0,0,1,2.337,0v8.238A1.161,1.161,0,0,1,146.369,120.31Z" transform="translate(-145.2 -109.77)" fill="#6f565e" stroke="#70565e" stroke-width="0.5"/>
      </g>
    </g>
  </g>
</svg>
