<svg id="Icon-exit-v02" xmlns="http://www.w3.org/2000/svg" width="24" height="24" viewBox="0 0 24 24">
  <path id="Trazado_1445" data-name="Trazado 1445" d="M1863.622-5038.5l3.939-3.939a1.5,1.5,0,0,0,0-2.121,1.5,1.5,0,0,0-2.121,0l-3.939,3.939-3.939-3.939a1.5,1.5,0,0,0-2.121,0,1.5,1.5,0,0,0,0,2.121l3.939,3.939-3.939,3.939a1.5,1.5,0,0,0,0,2.121,1.5,1.5,0,0,0,1.061.439,1.5,1.5,0,0,0,1.061-.439l3.939-3.939,3.939,3.939a1.5,1.5,0,0,0,1.061.439,1.5,1.5,0,0,0,1.061-.439,1.5,1.5,0,0,0,0-2.121Z" transform="translate(-1849.501 5050.5)" fill="rgba(87,75,79,0.4)"/>
  <rect id="Rectángulo_10957" data-name="Rectángulo 10957" width="24" height="24" fill="none"/>
</svg>
