<svg xmlns="http://www.w3.org/2000/svg" xmlns:xlink="http://www.w3.org/1999/xlink" width="35" height="26" viewBox="0 0 35 26">
  <defs>
    <clipPath id="clip-path">
      <rect id="Rectángulo_14500" data-name="Rectángulo 14500" width="26" height="26" fill="none"/>
    </clipPath>
  </defs>
  <g id="Grupo_26294" data-name="Grupo 26294" transform="translate(-33.5 -45)">
    <g id="Grupo_25899" data-name="Grupo 25899" transform="translate(-290.5 -451)">
      <g id="Grupo_25895" data-name="Grupo 25895" transform="translate(-204 230.795)">
        <g id="Icon-sms" transform="translate(537 265.205)">
          <g id="Grupo_17423" data-name="Grupo 17423" clip-path="url(#clip-path)">
            <path id="Trazado_4945" data-name="Trazado 4945" d="M42.81,16.832a1.919,1.919,0,0,0-2-1.832H22a1.919,1.919,0,0,0-2,1.832,1.7,1.7,0,0,0,.023.262H20v2.618h0q0,1.307,0,2.615h0v4.712h0q0,1.06,0,2.119a3.266,3.266,0,0,0,3.366,3.111c1.069.011,2.138,0,3.207,0h.27v.258q0,1.922,0,3.844a1.037,1.037,0,0,0,.731,1.063,1.2,1.2,0,0,0,1.262-.279l3.465-3.18c.572-.525,1.14-1.054,1.721-1.572a.573.573,0,0,1,.344-.129c1.626-.008,3.252-.03,4.877,0a3.365,3.365,0,0,0,3.529-2.719.275.275,0,0,1,.033-.074V17.094h-.023a1.7,1.7,0,0,0,.023-.262m-12.888,12.3H24.9a1.057,1.057,0,0,1,0-2.094h5.018a1.057,1.057,0,0,1,0,2.094M38.2,24.948H25.176a1.055,1.055,0,1,1,0-2.094H38.2a1.055,1.055,0,1,1,0,2.094m0-4.188H25.176a1.055,1.055,0,1,1,0-2.094H38.2a1.055,1.055,0,1,1,0,2.094" transform="translate(-18.405 -13.255)" fill="#6f565e"/>
          </g>
        </g>
      </g>
    </g>
    <g id="Grupo_25901" data-name="Grupo 25901" transform="translate(-290.5 -451)">
      <rect id="Rectángulo_16633" data-name="Rectángulo 16633" width="7" height="2" rx="1" transform="translate(326 502)" fill="#6f565e"/>
      <rect id="Rectángulo_16635" data-name="Rectángulo 16635" width="9" height="2" rx="1" transform="translate(324 506)" fill="#6f565e"/>
      <rect id="Rectángulo_16636" data-name="Rectángulo 16636" width="5" height="2" rx="1" transform="translate(328 510)" fill="#6f565e"/>
      <rect id="Rectángulo_16637" data-name="Rectángulo 16637" width="4" height="2" rx="1" transform="translate(329 498)" fill="#6f565e"/>
    </g>
  </g>
</svg>
