<svg id="Icon-dark-theme" xmlns="http://www.w3.org/2000/svg" width="24" height="24" viewBox="0 0 24 24">
  <rect id="Rectángulo_11069" data-name="Rectángulo 11069" width="24" height="24" fill="none"/>
  <path id="logout-svgrepo-com" d="M0,9.335V19.929a3.614,3.614,0,0,0,1.057,2.52,3.393,3.393,0,0,0,2.466,1H8.833V21.257H3.523a1.307,1.307,0,0,1-1.3-1.327V9.335a1.284,1.284,0,0,1,1.3-1.3H8.833V5.812H3.523a3.417,3.417,0,0,0-2.466,1.03A3.551,3.551,0,0,0,0,9.335Zm5.826,3.2v4.227a.926.926,0,0,0,.922.894h4.9v3.333a.742.742,0,0,0,.434.677,1.132,1.132,0,0,0,.271.027.656.656,0,0,0,.488-.19l6.368-6.368a.7.7,0,0,0,0-1L12.844,7.79a.7.7,0,0,0-1.192.488v3.36h-4.9a.926.926,0,0,0-.922.894Z" transform="translate(2.287 -2.631)" fill="#583b43"/>
</svg>
