<svg id="Icon-dark-theme" xmlns="http://www.w3.org/2000/svg" width="24" height="24" viewBox="0 0 24 24">
  <rect id="Rectángulo_11069" data-name="Rectángulo 11069" width="24" height="24" fill="none"/>
  <g id="icono" transform="translate(2.36 3.324)">
    <g id="Grupo_22935" data-name="Grupo 22935" transform="translate(8.808 0)">
      <circle id="Elipse_835" data-name="Elipse 835" cx="3" cy="3" r="3" transform="translate(0.521 0.956)" fill="#999295"/>
      <path id="Trazado_9819" data-name="Trazado 9819" d="M93.768,7.536a3.768,3.768,0,1,1,3.768-3.768A3.772,3.772,0,0,1,93.768,7.536Zm0-5.652a1.884,1.884,0,1,0,1.884,1.884A1.886,1.886,0,0,0,93.768,1.884Z" transform="translate(-90)" fill="#999295"/>
    </g>
    <path id="Trazado_9820" data-name="Trazado 9820" d="M34.083,5.624a1.925,1.925,0,0,1-.315.028,1.884,1.884,0,0,1,0-3.768,1.925,1.925,0,0,1,.315.028,5.637,5.637,0,0,1,.945-1.7,3.768,3.768,0,1,0,0,7.1,5.658,5.658,0,0,1-.945-1.7Z" transform="translate(-27.084)" fill="#999295"/>
    <path id="Trazado_9821" data-name="Trazado 9821" d="M3.768,97.744V96.8H1.884V93.983a3.836,3.836,0,0,1,2.171-1.446A5.3,5.3,0,0,1,6,90.23c-2.85.2-6,1.8-6,3.746v3.768a.942.942,0,0,0,.942.942H3.929A2.81,2.81,0,0,1,3.768,97.744Z" transform="translate(0 -81.335)" fill="#999295"/>
    <g id="Grupo_22936" data-name="Grupo 22936" transform="translate(6.091 8.873)">
      <path id="Trazado_9822" data-name="Trazado 9822" d="M81.3,106.594H70v-3.768c0-1.248,2.826-2.826,5.652-2.826s5.652,1.578,5.652,2.826Z" transform="translate(-69.058 -99.058)" fill="#999295"/>
      <path id="Trazado_9823" data-name="Trazado 9823" d="M72.246,98.478h-11.3A.942.942,0,0,1,60,97.536V93.768C60,91.681,63.607,90,66.594,90s6.594,1.681,6.594,3.768v3.768A.942.942,0,0,1,72.246,98.478ZM61.884,96.594H71.3V93.775c-.087-.476-2.094-1.891-4.71-1.891s-4.623,1.415-4.71,1.891Z" transform="translate(-60 -90)" fill="#999295"/>
    </g>
  </g>
</svg>
