<svg xmlns="http://www.w3.org/2000/svg" width="26.73" height="26.73" viewBox="0 0 26.73 26.73">
  <path id="gui-refresh-svgrepo-com" d="M27.295,17.149a.292.292,0,0,1-.018.122,13.523,13.523,0,0,1-4.664,7.561,12.756,12.756,0,0,1-8.318,2.9,13.037,13.037,0,0,1-4.916-.957,13.284,13.284,0,0,1-4.237-2.732L2.9,26.286a1.093,1.093,0,0,1-1.566,0A1.07,1.07,0,0,1,1,25.5v-7.8a1.07,1.07,0,0,1,.331-.783,1.07,1.07,0,0,1,.783-.331h7.8a1.108,1.108,0,0,1,.783,1.9L8.309,20.873a8.978,8.978,0,0,0,2.8,1.775,8.861,8.861,0,0,0,7.6-.5,8.774,8.774,0,0,0,3.237-3.115,21.1,21.1,0,0,0,.922-2.036.522.522,0,0,1,.522-.4h3.341a.565.565,0,0,1,.557.557ZM27.73,3.227v7.8a1.129,1.129,0,0,1-1.114,1.114h-7.8a1.108,1.108,0,0,1-.783-1.9l2.4-2.4a8.646,8.646,0,0,0-6.073-2.384A8.876,8.876,0,0,0,6.778,9.7a21.1,21.1,0,0,0-.922,2.036.522.522,0,0,1-.522.4H1.87a.565.565,0,0,1-.557-.557v-.122A13.575,13.575,0,0,1,6.012,3.9,12.851,12.851,0,0,1,14.365,1a13.131,13.131,0,0,1,4.942.966,13.483,13.483,0,0,1,4.264,2.723l2.262-2.245a1.093,1.093,0,0,1,1.566,0A1.07,1.07,0,0,1,27.73,3.227Z" transform="translate(-1 -1)" fill="#8f4d63"/>
</svg>
