<svg id="icon-checkbox-selected" xmlns="http://www.w3.org/2000/svg" width="24" height="24" viewBox="0 0 24 24">
  <path id="Sustracci칩n_1" data-name="Sustracci칩n 1" d="M16,20H4a4,4,0,0,1-4-4V4A4,4,0,0,1,4,0H16a4,4,0,0,1,4,4V16A4,4,0,0,1,16,20ZM6,9.5a1.5,1.5,0,0,0-1.061,2.561l2.5,2.5A1.49,1.49,0,0,0,8.5,15h.063a1.5,1.5,0,0,0,1.083-.53l5.5-6.5a1.5,1.5,0,0,0-2.29-1.938L8.408,11.286,7.06,9.94A1.49,1.49,0,0,0,6,9.5Z" transform="translate(2 2)" fill="#8f4e63" stroke="rgba(0,0,0,0)" stroke-width="1"/>
  <rect id="Rect치ngulo_4" data-name="Rect치ngulo 4" width="24" height="24" fill="none"/>
</svg>
