<svg xmlns="http://www.w3.org/2000/svg" width="28.878" height="28.878" viewBox="0 0 28.878 28.878">
  <g id="Icon-trash" opacity="0.9">
    <rect id="Rectángulo_11002" data-name="Rectángulo 11002" width="24" height="24" transform="translate(2.439 2.439)" fill="none"/>
    <path id="Trazado_10470" data-name="Trazado 10470" d="M10.21,0A10.21,10.21,0,1,0,20.42,10.21,10.209,10.209,0,0,0,10.21,0Zm-.032,3.718A1.757,1.757,0,1,1,8.421,5.475,1.757,1.757,0,0,1,10.178,3.718Zm0,13.1a1.757,1.757,0,1,1,1.757-1.757A1.757,1.757,0,0,1,10.178,16.814Zm4.707-5.15H5.656a1.515,1.515,0,1,1,0-3.03h9.229a1.515,1.515,0,0,1,0,3.03Z" transform="translate(0 14.439) rotate(-45)" fill="#84797c"/>
  </g>
</svg>
