<svg xmlns="http://www.w3.org/2000/svg" width="30" height="30" viewBox="0 0 30 30">
  <g id="Grupo_31264" data-name="Grupo 31264" transform="translate(-591 -148)">
    <path id="Trazado_10287" data-name="Trazado 10287" d="M14,0A14,14,0,1,1,0,14,14,14,0,0,1,14,0Z" transform="translate(592 149)" fill="#fff" stroke="#8f4e63" stroke-width="2"/>
    <path id="Trazado_4244" data-name="Trazado 4244" d="M30,20A10,10,0,1,0,40,30,10.011,10.011,0,0,0,30,20Zm5.561,8.561-6,6a1.5,1.5,0,0,1-2.122,0l-3-3A1.5,1.5,0,1,1,26.56,29.44l1.94,1.939,4.939-4.939a1.5,1.5,0,0,1,2.122,2.121Z" transform="translate(576 133)" fill="#8f4e63"/>
  </g>
</svg>
