<svg id="Componente_1041_84" data-name="Componente 1041 – 84" xmlns="http://www.w3.org/2000/svg" width="24" height="24" viewBox="0 0 24 24">
  <path id="Unión_38" data-name="Unión 38" d="M233-183a1,1,0,0,1-1-1v-18a1,1,0,0,1,1-1h10a1,1,0,0,1,.707.293l4,4A1,1,0,0,1,248-198v14a1,1,0,0,1-1,1Zm0-1h14v-14l-4-4H233Zm1-1v-16h8.572L246-197.445V-185Zm4.967-12.532c-.279.346-.719,1.318.373,3.443-.131.4-.291.827-.483,1.286a14.168,14.168,0,0,1-.728,1.483c-1.658.681-2.835,1.542-3.006,2.266a.7.7,0,0,0,.207.7.962.962,0,0,0,.654.255,1.123,1.123,0,0,0,.247-.028c.822-.186,1.733-1.334,2.451-2.552a14.872,14.872,0,0,1,1.482-.486c.416-.113.787-.2,1.12-.275a3.521,3.521,0,0,0,2.921,1.144.94.94,0,0,0,.695-.942,1.074,1.074,0,0,0-.427-.886c-.513-.392-1.48-.453-2.942-.181a6.763,6.763,0,0,1-.808-1.009c-.2-.3-.372-.589-.519-.857a5.413,5.413,0,0,0,.281-3.137.945.945,0,0,0-.53-.54.765.765,0,0,0-.275-.051A.926.926,0,0,0,238.967-197.533Zm-3.054,8.617a3.488,3.488,0,0,1,1.382-1.119,2.958,2.958,0,0,1-1.24,1.126.313.313,0,0,1-.069.009A.161.161,0,0,1,235.913-188.915Zm6.424-2.706c1.153-.139,1.539.047,1.651.131a.279.279,0,0,1,.112.251c0,.119-.038.15-.124.176a.66.66,0,0,1-.188.024A2.844,2.844,0,0,1,242.338-191.622Zm-2.743-.873c.068-.16.163-.4.269-.68.06.1.124.2.192.3a7.416,7.416,0,0,0,.573.764c-.217.052-.442.111-.675.174s-.478.137-.708.211C239.377-192,239.495-192.255,239.594-192.495Zm-.059-4.45c.057-.114.118-.148.14-.155a.217.217,0,0,1,.073.1,3.307,3.307,0,0,1-.071,1.688A2.253,2.253,0,0,1,239.535-196.944Z" transform="translate(-228 205)" fill="#6f565e" stroke="rgba(0,0,0,0)" stroke-width="1"/>
  <rect id="Rectángulo_11048" data-name="Rectángulo 11048" width="24" height="24" fill="rgba(255,255,255,0)"/>
</svg>
