<svg id="Icon-show-pass" xmlns="http://www.w3.org/2000/svg" width="24" height="24" viewBox="0 0 24 24">
  <g id="Grupo_17210" data-name="Grupo 17210" transform="translate(2 4)">
    <path id="Trazado_4215" data-name="Trazado 4215" d="M38.96,44.93a10.489,10.489,0,0,0-15.83-2.31,10.993,10.993,0,0,0-2.09,2.31,5.051,5.051,0,0,0,0,6.14,10.489,10.489,0,0,0,15.83,2.31,10.993,10.993,0,0,0,2.09-2.31,5.051,5.051,0,0,0,0-6.14ZM30,53c-3.87,0-7-3.46-7-5s3.13-5,7-5,7,3.46,7,5S33.87,53,30,53Z" transform="translate(-20 -40)" fill="#6f565e"/>
    <circle id="Elipse_11" data-name="Elipse 11" cx="3" cy="3" r="3" transform="translate(7 5)" fill="#6f565e"/>
  </g>
  <rect id="Rectángulo_10970" data-name="Rectángulo 10970" width="24" height="24" fill="none"/>
</svg>
