<svg id="icon-checkbox-line" xmlns="http://www.w3.org/2000/svg" width="24" height="24" viewBox="0 0 24 24">
  <path id="Sustracci칩n_5" data-name="Sustracci칩n 5" d="M-71-67H-83a4.005,4.005,0,0,1-4-4V-83a4.005,4.005,0,0,1,4-4h12a4.005,4.005,0,0,1,4,4v12A4.005,4.005,0,0,1-71-67ZM-81.5-78.5A1.5,1.5,0,0,0-83-77a1.5,1.5,0,0,0,1.5,1.5h9A1.5,1.5,0,0,0-71-77a1.5,1.5,0,0,0-1.5-1.5Z" transform="translate(89 89)" fill="#8f4e63"/>
  <rect id="Rect치ngulo_11032" data-name="Rect치ngulo 11032" width="24" height="24" fill="none"/>
</svg>
