<svg id="Icon-sms" xmlns="http://www.w3.org/2000/svg" xmlns:xlink="http://www.w3.org/1999/xlink" width="22" height="22" viewBox="0 0 22 22">
  <defs>
    <clipPath id="clip-path">
      <rect id="Rectángulo_14500" data-name="Rectángulo 14500" width="22" height="22" fill="none"/>
    </clipPath>
  </defs>
  <g id="Grupo_17423" data-name="Grupo 17423" clip-path="url(#clip-path)">
    <path id="Trazado_4945" data-name="Trazado 4945" d="M40,16.628A1.692,1.692,0,0,0,38.25,15H21.75A1.692,1.692,0,0,0,20,16.628a1.527,1.527,0,0,0,.02.233H20v2.326h0q0,1.162,0,2.323h0V25.7h0q0,.941,0,1.883a2.88,2.88,0,0,0,2.951,2.764c.937.01,1.874,0,2.812,0H26v.229q0,1.708,0,3.415a.921.921,0,0,0,.641.945,1.038,1.038,0,0,0,1.106-.248l3.038-2.825c.5-.467,1-.937,1.509-1.4a.5.5,0,0,1,.3-.115c1.425-.007,2.851-.027,4.276,0a2.96,2.96,0,0,0,3.094-2.415A.246.246,0,0,1,40,27.87V16.861h-.02a1.528,1.528,0,0,0,.02-.233M28.7,27.56H24.3a.941.941,0,0,1,0-1.861h4.4a.941.941,0,0,1,0,1.861m7.262-3.721H24.539a.936.936,0,1,1,0-1.861H35.962a.936.936,0,1,1,0,1.861m0-3.721H24.539a.936.936,0,1,1,0-1.861H35.962a.936.936,0,1,1,0,1.861" transform="translate(-19 -14)" fill="#fff"/>
  </g>
</svg>
