<svg id="icon-close" xmlns="http://www.w3.org/2000/svg" width="24" height="24" viewBox="0 0 24 24">
  <path id="Trazado_12" data-name="Trazado 12" d="M30,20A10,10,0,1,0,40,30,10,10,0,0,0,30,20Zm4.95,12.828a1.5,1.5,0,0,1-2.121,2.121L30,32.121,27.172,34.95a1.5,1.5,0,0,1-2.121-2.121L27.879,30,25.05,27.172a1.5,1.5,0,0,1,2.121-2.121L30,27.879l2.828-2.829a1.5,1.5,0,0,1,2.121,2.121L32.121,30Z" transform="translate(-18 -18)" fill="#7b354d"/>
  <rect id="Rectángulo_21" data-name="Rectángulo 21" width="24" height="24" fill="none"/>
</svg>
