<svg id="Componente_719_27" data-name="Componente 719 – 27" xmlns="http://www.w3.org/2000/svg" width="24" height="24" viewBox="0 0 24 24">
  <path id="Trazado_4444" data-name="Trazado 4444" d="M30,20A10,10,0,1,0,40,30,10,10,0,0,0,30,20m4.5,11.5h-3v3a1.5,1.5,0,0,1-3,0v-3h-3a1.5,1.5,0,0,1,0-3h3v-3a1.5,1.5,0,0,1,3,0v3h3a1.5,1.5,0,0,1,0,3" transform="translate(-18 -18)" fill="#6f565e"/>
  <rect id="Rectángulo_11113" data-name="Rectángulo 11113" width="24" height="24" fill="rgba(255,255,255,0)"/>
</svg>
