<svg id="Icon-plus" xmlns="http://www.w3.org/2000/svg" width="24" height="24" viewBox="0 0 24 24">
  <path id="Trazado_4270" data-name="Trazado 4270" d="M946.5-262.5h-6v-6A1.5,1.5,0,0,0,939-270a1.5,1.5,0,0,0-1.5,1.5v6h-6A1.5,1.5,0,0,0,930-261a1.5,1.5,0,0,0,1.5,1.5h6v6A1.5,1.5,0,0,0,939-252a1.5,1.5,0,0,0,1.5-1.5v-6h6A1.5,1.5,0,0,0,948-261,1.5,1.5,0,0,0,946.5-262.5Z" transform="translate(-927 273)" fill="#fff"/>
  <rect id="Rectángulo_11001" data-name="Rectángulo 11001" width="24" height="24" fill="none"/>
</svg>
