<svg id="Icono_ayuda" data-name="Icono ayuda" xmlns="http://www.w3.org/2000/svg" width="22" height="22" viewBox="0 0 22 22">
  <rect id="Rectángulo_16632" data-name="Rectángulo 16632" width="22" height="22" fill="none"/>
  <path id="help-svgrepo-com" d="M12,22A10,10,0,1,1,22,12,10,10,0,0,1,12,22ZM7.92,9.234v.1a.5.5,0,0,0,.5.5h1a.5.5,0,0,0,.5-.5c0-1.29,1-1.979,2.34-1.979,1.308,0,2.168.689,2.168,1.67,0,.928-.482,1.359-1.686,1.91l-.344.154A2.158,2.158,0,0,0,11,13.381V13.5a.5.5,0,0,0,.5.5h1a.5.5,0,0,0,.5-.5.821.821,0,0,1,.55-.912l.345-.155c1.445-.654,2.529-1.514,2.529-3.39v-.1c0-1.978-1.72-3.441-4.164-3.441C9.778,5.5,7.92,6.928,7.92,9.234Zm2.58,7.757A1.5,1.5,0,1,0,11.991,15.5,1.459,1.459,0,0,0,10.5,16.991Z" transform="translate(-1 -1)" fill="#fff"/>
</svg>
