<svg id="Componente_148_77" data-name="Componente 148 – 77" xmlns="http://www.w3.org/2000/svg" width="24" height="24" viewBox="0 0 24 24">
  <g id="Grupo_17299" data-name="Grupo 17299" transform="translate(-318 -18)">
    <g id="Grupo_26623" data-name="Grupo 26623">
      <path id="Trazado_4437" data-name="Trazado 4437" d="M400.689,101.656a1.842,1.842,0,0,0-.483-.291,1.286,1.286,0,0,0-.468-.094.759.759,0,0,0-.468.136.423.423,0,0,0-.181.355.353.353,0,0,0,.091.249.785.785,0,0,0,.238.17,2.042,2.042,0,0,0,.332.125q.185.053.366.113a2.284,2.284,0,0,1,1.061.646,1.594,1.594,0,0,1,.336,1.053,2.05,2.05,0,0,1-.147.793,1.653,1.653,0,0,1-.43.608,1.985,1.985,0,0,1-.695.393,2.892,2.892,0,0,1-.933.14,3.429,3.429,0,0,1-2-.642l.634-1.193a2.571,2.571,0,0,0,.657.438,1.577,1.577,0,0,0,.642.143.765.765,0,0,0,.54-.166.505.505,0,0,0,.178-.377.512.512,0,0,0-.045-.223.484.484,0,0,0-.151-.174,1.215,1.215,0,0,0-.276-.147q-.17-.068-.412-.151-.287-.091-.563-.2a1.77,1.77,0,0,1-.491-.291,1.355,1.355,0,0,1-.347-.457,1.617,1.617,0,0,1-.132-.7,2.017,2.017,0,0,1,.14-.766,1.7,1.7,0,0,1,.393-.589,1.749,1.749,0,0,1,.619-.381,2.343,2.343,0,0,1,.819-.136,3.581,3.581,0,0,1,.883.117,3.9,3.9,0,0,1,.883.344Z" transform="translate(-69.582 -72.043)" fill="#6f565e"/>
      <path id="Trazado_4438" data-name="Trazado 4438" d="M343.088,104.829a1.5,1.5,0,1,1,1.061-2.561l1.06-1.06a3,3,0,1,0,0,4.241l-1.06-1.06A1.5,1.5,0,0,1,343.088,104.829Z" transform="translate(-18.082 -72.305)" fill="#6f565e"/>
      <path id="Trazado_4439" data-name="Trazado 4439" d="M447.856,103.076l-1.472,4.284-1.472-4.284h-1.36l1.967,5.723h1.732l1.967-5.723Z" transform="translate(-111.207 -74.775)" fill="#6f565e"/>
    </g>
    <path id="Trazado_4440" data-name="Trazado 4440" d="M339.972,79.984h-1.03v.024H320V90.023h19.931v-.016h.042ZM338.931,89H321V81.007h17.932Z" transform="translate(0 -53.991)" fill="#6f565e"/>
    <path id="Trazado_4441" data-name="Trazado 4441" d="M370.266,177.718h12.369a.327.327,0,0,0,.331-.29V175.22H369.975v2.208A.291.291,0,0,0,370.266,177.718Z" transform="translate(-44.982 -139.711)" fill="#6f565e"/>
    <path id="Trazado_4442" data-name="Trazado 4442" d="M382.779,40.22H372.8l-2.67,2.583v2.369l12.976.043V40.5A.318.318,0,0,0,382.779,40.22Z" transform="translate(-45.124 -18.2)" fill="#6f565e"/>
    <path id="Trazado_4443" data-name="Trazado 4443" d="M365.314,20H354.032L350,24.032v2.984h1V24.294l.608-.61,2.663-2.663h10.391a1.291,1.291,0,0,1,1.289,1.289v2.541a.8.8,0,0,1,.021.18v1.985h.018v8.528h-.018V38.2a.8.8,0,0,1-.058.3.63.63,0,0,1-.372.413.8.8,0,0,1-.376.094H351.8A.806.806,0,0,1,351,38.2V35.007h-1v3.288a1.688,1.688,0,0,0,1.688,1.688h13.626A1.688,1.688,0,0,0,367,38.295V21.688A1.688,1.688,0,0,0,365.314,20Z" transform="translate(-27.003 0)" fill="#6f565e"/>
  </g>
  <rect id="Rectángulo_11095" data-name="Rectángulo 11095" width="24" height="24" fill="rgba(255,255,255,0)"/>
</svg>
