<?xml version="1.0" encoding="UTF-8"?>
<svg id="Capa_2" data-name="Capa 2" xmlns="http://www.w3.org/2000/svg" viewBox="0 0 573.67 203.2">
  <defs>
    <style>
      .cls-1 {
        fill: #fff;
      }
    </style>
  </defs>
  <g id="Capa_1-2" data-name="Capa 1">
    <g>
      <g>
        <g>
          <path class="cls-1" d="M34.99,79.67c23.42,0,34.99,10.58,34.99,34.19,0,20.66-9.09,31.23-27.57,33.41.59,3.95,3.36,5.33,10.87,5.33,3.66,0,8.5-.49,12.25-1.28v9.98c-4.55,1.09-8.89,1.58-13.05,1.58-16.01,0-22.73-4.75-24.21-15.52-18.88-1.97-28.27-12.65-28.27-33.5,0-23.62,11.66-34.19,34.99-34.19h0ZM14.92,113.67c0,14.53,6.62,21.84,20.06,21.84s20.06-7.31,20.06-21.84-6.62-21.84-20.06-21.84-20.06,7.31-20.06,21.84Z"/>
          <path class="cls-1" d="M102.69,80.57v40.72c0,8.6,5.83,14.33,16.21,14.33s16.11-5.73,16.11-14.33v-40.72h14.43v40.22c0,18.18-14.43,26.88-30.54,26.88s-30.64-8.7-30.64-26.88v-40.22h14.43,0Z"/>
          <path class="cls-1" d="M199.76,79.67c6.62,0,9.98,2.77,12.16,7.91l24.81,59.2h-16.5l-5.14-13.24h-30.84l-5.14,13.24h-16.51l24.91-59.1c2.17-5.24,5.53-8.01,12.25-8.01h0ZM210.73,122.07l-9.78-25.3c-.3-.89-.79-1.09-1.19-1.09s-.99.2-1.28,1.09l-9.79,25.3h22.04Z"/>
          <path class="cls-1" d="M266.88,80.57l35.58,44.38v-44.38h13.93v66.22h-13.93l-35.58-44.38v44.38h-13.94v-66.22h13.94Z"/>
          <path class="cls-1" d="M396.05,92.13h-23.72v54.65h-14.43v-54.65h-23.72v-11.56h61.87v11.56h0Z"/>
          <path class="cls-1" d="M428.28,80.57v40.72c0,8.6,5.83,14.33,16.21,14.33s16.11-5.73,16.11-14.33v-40.72h14.43v40.22c0,18.18-14.43,26.88-30.54,26.88s-30.64-8.7-30.64-26.88v-40.22h14.43Z"/>
          <path class="cls-1" d="M510.02,80.57l23.53,40.82c.49.79,1.48.79,1.87,0l23.52-40.82h14.73v66.22h-14.43v-42l-15.02,25.4c-2.67,4.54-5.63,6.23-9.88,6.23s-7.32-1.68-9.88-6.23l-15.02-25.4v42h-14.23v-66.22h14.82-.01Z"/>
        </g>
        <g>
          <g>
            <path class="cls-1" d="M132.85,5.8v6.95h-36.02v17.97h34.58v6.95h-34.58v10.59c0,4.24,3.14,7.38,7.37,7.38h28.65v6.95h-30.77c-7.97,0-13.82-5.51-13.82-12.97V5.8h44.59Z"/>
            <path class="cls-1" d="M226.57,34.2c0,18.99-9.66,28.39-29.16,28.39h-24.58V5.8h24.58c19.49,0,29.16,9.41,29.16,28.39h0ZM197.42,55.64c13.56,0,20.34-7.29,20.34-21.44s-6.78-21.44-20.34-21.44h-16.02v42.89h16.02Z"/>
          </g>
          <path class="cls-1" d="M28.74,27.77c1.8-1.8,2.71-3.99,2.71-6.51,0-2.25-.73-4.23-2.16-5.92l-.56-.62c-1.81-1.78-4.02-2.69-6.56-2.69H3.36v18.46h18.81c2.56,0,4.77-.92,6.57-2.72ZM8.22,16.18h14.95c.97,0,1.72.47,2.42,1.52.71,1.06,1.02,2.16,1.02,3.56v2.02l-1.02,1.54c-.7,1.05-1.45,1.52-2.42,1.52h-14.95v-10.17h0Z"/>
          <path class="cls-1" d="M43.59,14.8c-1.01-3.26-2.74-6.15-5.18-8.59C34.27,2.09,29.23,0,23.42,0H8C5.44,0,3.36,2.08,3.36,4.64v1.89h20.06c4.03,0,7.55,1.45,10.44,4.3,1.53,1.52,2.67,3.3,3.39,5.32-.92,1-1.44,2.29-1.44,3.65,0,1.7.77,3.26,2.05,4.3-.53,2.92-1.88,5.46-4.01,7.57-2.89,2.86-6.4,4.31-10.44,4.31h-2.73l-2.03,3.68.74,1.23c5.26,8.75,9.06,15.08,11.47,19.14h-4.61c-2.79,0-5.36-1.52-6.7-3.96l-8.06-14.62c.32-.67.49-1.4.49-2.16,0-1.47-.54-2.8-1.56-3.85-1-1.01-2.35-1.57-3.79-1.57h0c-1.44,0-2.79.56-3.82,1.58-1.01,1.04-1.54,2.34-1.54,3.77s.54,2.79,1.55,3.78c.85.86,1.89,1.38,3.05,1.53l8.74,15.96c2.01,3.67,5.85,5.95,10.04,5.95h17.71l-14.69-24.37c4.1-.82,7.72-2.8,10.8-5.91,3.25-3.28,5.22-7.22,5.85-11.73,1.58-1,2.58-2.75,2.58-4.64,0-2.23-1.32-4.15-3.32-5.01v.02ZM6.32,42.27c-1.55,0-2.8-1.25-2.8-2.8s1.25-2.8,2.8-2.8,2.8,1.25,2.8,2.8-1.25,2.8-2.8,2.8ZM41.58,22.97c-1.55,0-2.8-1.25-2.8-2.8s1.25-2.8,2.8-2.8,2.8,1.25,2.8,2.8-1.25,2.8-2.8,2.8Z"/>
        </g>
      </g>
      <g>
        <g>
          <path class="cls-1" d="M269.62,183.83c0,4.48-3.24,7.2-8.62,7.2h-5.11v6.26h-2.95v-20.67h8.06c5.38,0,8.62,2.72,8.62,7.21h0ZM266.67,183.83c0-2.95-1.98-4.64-5.76-4.64h-5.02v9.27h5.02c3.78,0,5.76-1.68,5.76-4.63Z"/>
          <path class="cls-1" d="M272.06,189.47c0-4.66,3.45-7.97,8.15-7.97s8.12,3.31,8.12,7.97-3.42,8-8.12,8-8.15-3.34-8.15-8h0ZM285.46,189.47c0-3.34-2.24-5.49-5.26-5.49s-5.28,2.16-5.28,5.49,2.27,5.52,5.28,5.52,5.26-2.19,5.26-5.52Z"/>
          <path class="cls-1" d="M315.5,181.65l-5.85,15.65h-2.72l-4.52-11.87-4.58,11.87h-2.71l-5.82-15.65h2.69l4.55,12.46,4.72-12.46h2.39l4.64,12.52,4.66-12.52h2.55Z"/>
          <path class="cls-1" d="M332.03,190.41h-12.7c.35,2.75,2.57,4.58,5.67,4.58,1.83,0,3.37-.62,4.52-1.89l1.57,1.83c-1.42,1.65-3.57,2.54-6.17,2.54-5.05,0-8.41-3.34-8.41-8s3.34-7.97,7.85-7.97,7.73,3.25,7.73,8.06c0,.24-.03.59-.06.86h0ZM319.33,188.38h10.04c-.29-2.63-2.27-4.49-5.02-4.49s-4.72,1.83-5.02,4.49h0Z"/>
          <path class="cls-1" d="M344.44,181.5v2.75c-.24-.03-.44-.03-.65-.03-3.04,0-4.93,1.86-4.93,5.29v7.79h-2.83v-15.65h2.72v2.63c1.01-1.83,2.95-2.77,5.7-2.77h-.01Z"/>
          <path class="cls-1" d="M361.87,190.41h-12.7c.35,2.75,2.57,4.58,5.67,4.58,1.83,0,3.37-.62,4.52-1.89l1.57,1.83c-1.42,1.65-3.57,2.54-6.17,2.54-5.05,0-8.41-3.34-8.41-8s3.34-7.97,7.85-7.97,7.73,3.25,7.73,8.06c0,.24-.03.59-.06.86h0ZM349.17,188.38h10.04c-.29-2.63-2.27-4.49-5.02-4.49s-4.72,1.83-5.02,4.49h0Z"/>
          <path class="cls-1" d="M380.63,175.38v21.91h-2.72v-2.48c-1.27,1.77-3.28,2.66-5.58,2.66-4.58,0-7.91-3.22-7.91-8s3.34-7.97,7.91-7.97c2.22,0,4.16.83,5.46,2.51v-8.62h2.84ZM377.83,189.47c0-3.34-2.28-5.49-5.26-5.49s-5.28,2.16-5.28,5.49,2.27,5.52,5.28,5.52,5.26-2.19,5.26-5.52Z"/>
          <path class="cls-1" d="M410.18,189.47c0,4.78-3.34,8-7.91,8-2.3,0-4.31-.89-5.58-2.66v2.48h-2.72v-21.91h2.83v8.62c1.3-1.68,3.25-2.51,5.46-2.51,4.58,0,7.91,3.19,7.91,7.97h.01ZM407.31,189.47c0-3.34-2.27-5.49-5.29-5.49s-5.26,2.16-5.26,5.49,2.27,5.52,5.26,5.52,5.29-2.19,5.29-5.52Z"/>
          <path class="cls-1" d="M427.53,181.65l-7.59,17.21c-1.39,3.31-3.19,4.34-5.58,4.34-1.51,0-3.04-.5-4.01-1.45l1.21-2.12c.77.74,1.74,1.15,2.8,1.15,1.36,0,2.22-.62,2.98-2.42l.5-1.09-6.91-15.62h2.96l5.46,12.52,5.4-12.52h2.78Z"/>
        </g>
        <g>
          <g>
            <path class="cls-1" d="M456.65,187.62l-10.78-18.17c-.72-1.21-2.02-1.95-3.42-1.95h-3.98v25.15c0,2.28,1.85,4.14,4.14,4.14h1.76v-20.12l10.78,18.17c.72,1.21,2.02,1.95,3.42,1.95h0c2.2,0,3.98-1.78,3.98-3.98v-25.31h-1.92c-2.2,0-3.98,1.78-3.98,3.98v16.14h0Z"/>
            <path class="cls-1" d="M479.18,176.42c.03,3,0,12.02,0,12.02,0,2.54-1.29,3.79-3.88,3.79s-3.88-1.25-3.88-3.79v-12.05c0-1.55-1.26-2.81-2.81-2.81h-2.92v13.7c0,3.83.99,6.33,2.97,7.58,1.98,1.29,4.09,1.94,6.46,1.94s4.69-.6,6.72-1.77c2.02-1.25,3.01-3.83,3.01-7.75v-13.7h-2.93c-1.9,0-2.78.95-2.76,2.84h.02Z"/>
            <path class="cls-1" d="M508.12,174.01h-4.38c-1.36,0-2.62.73-3.3,1.92l-2.7,4.74-2.7-4.74c-.67-1.19-1.93-1.92-3.3-1.92h-4.38l4.97,7.92c1.22,1.95,1.22,4.43-.02,6.37l-5.39,8.49h4.81c1.37,0,2.63-.74,3.3-1.93l2.7-4.77,2.7,4.77c.67,1.19,1.94,1.93,3.3,1.93h4.81l-5.39-8.49c-1.23-1.94-1.24-4.42-.02-6.37l4.97-7.92h.02Z"/>
            <rect class="cls-1" x="510.87" y="167.56" width="5.71" height="5.23" rx="2.61" ry="2.61"/>
            <path class="cls-1" d="M510.88,196.79h5.73v-15.42c0-3.16-2.56-5.73-5.73-5.73h0v21.15Z"/>
            <path class="cls-1" d="M532.03,173.32c-2.84,0-5,1.16-6.46,3.53v-6.46c0-1.9-.95-2.89-2.84-2.89h-2.89v19.09c0,6.85,3.58,10.25,10.68,10.21,7.06-.13,10.6-3.96,10.6-11.54s-3.01-11.72-9.09-11.93h0ZM530.35,191.93c-3.27,0-4.82-2.33-4.78-6.93.17-4.39,1.77-6.55,4.87-6.55s4.7,2.15,4.82,6.55c0,4.61-1.64,6.93-4.91,6.93Z"/>
            <path class="cls-1" d="M551.45,196.94c2.84,0,6.4-1.16,7.86-3.53l-1.4.5c0,1.9,2.35,2.89,4.24,2.89h1.48v-13.12c0-6.85-3.58-10.25-10.68-10.21-7.06.13-10.6,3.96-10.6,11.54s3.01,11.72,9.09,11.93h.01ZM553.13,178.33c3.27,0,4.82,2.33,4.78,6.93-.17,4.39-1.77,6.55-4.87,6.55s-4.7-2.15-4.82-6.55c0-4.61,1.64-6.93,4.91-6.93h0Z"/>
          </g>
          <g>
            <path class="cls-1" d="M568.55,169.12h1.58c.28,0,.53.06.75.18s.39.28.51.49.18.44.18.71-.09.53-.26.74c-.18.22-.4.37-.66.47v.04l1.16,1.67v.05h-.94l-1.12-1.63h-.38v1.63h-.82v-4.34h0ZM570.13,171.08c.19,0,.34-.06.45-.17.12-.11.18-.26.18-.43s-.06-.31-.17-.42c-.11-.12-.26-.18-.45-.18h-.77v1.2h.76Z"/>
            <path class="cls-1" d="M569.95,175.01c-2.05,0-3.72-1.67-3.72-3.72s1.67-3.72,3.72-3.72,3.72,1.67,3.72,3.72-1.67,3.72-3.72,3.72ZM569.95,168.19c-1.71,0-3.1,1.39-3.1,3.1s1.39,3.1,3.1,3.1,3.1-1.39,3.1-3.1-1.39-3.1-3.1-3.1Z"/>
          </g>
        </g>
      </g>
    </g>
  </g>
</svg>