<?xml version="1.0" encoding="UTF-8"?>
<svg id="Capa_2" data-name="Capa 2" xmlns="http://www.w3.org/2000/svg" viewBox="0 0 573.67 162.88">
  <defs>
    <style>
      .cls-1 {
        fill: #fff;
      }
    </style>
  </defs>
  <g id="Capa_1-2" data-name="Capa 1">
    <g>
      <path class="cls-1" d="M34.99,79.67c23.42,0,34.99,10.58,34.99,34.19,0,20.66-9.09,31.23-27.57,33.41.59,3.95,3.36,5.33,10.87,5.33,3.66,0,8.5-.49,12.25-1.28v9.98c-4.55,1.09-8.89,1.58-13.05,1.58-16.01,0-22.73-4.75-24.21-15.52-18.88-1.97-28.27-12.65-28.27-33.5,0-23.62,11.66-34.19,34.99-34.19h0ZM14.92,113.67c0,14.53,6.62,21.84,20.06,21.84s20.06-7.31,20.06-21.84-6.62-21.84-20.06-21.84-20.06,7.31-20.06,21.84Z"/>
      <path class="cls-1" d="M102.69,80.57v40.72c0,8.6,5.83,14.33,16.21,14.33s16.11-5.73,16.11-14.33v-40.72h14.43v40.22c0,18.18-14.43,26.88-30.54,26.88s-30.64-8.7-30.64-26.88v-40.22h14.43,0Z"/>
      <path class="cls-1" d="M199.76,79.67c6.62,0,9.98,2.77,12.16,7.91l24.81,59.2h-16.5l-5.14-13.24h-30.84l-5.14,13.24h-16.51l24.91-59.1c2.17-5.24,5.53-8.01,12.25-8.01h0ZM210.73,122.07l-9.78-25.3c-.3-.89-.79-1.09-1.19-1.09s-.99.2-1.28,1.09l-9.79,25.3h22.04Z"/>
      <path class="cls-1" d="M266.88,80.57l35.58,44.38v-44.38h13.93v66.22h-13.93l-35.58-44.38v44.38h-13.94v-66.22h13.94Z"/>
      <path class="cls-1" d="M396.05,92.13h-23.72v54.65h-14.43v-54.65h-23.72v-11.56h61.87v11.56h0Z"/>
      <path class="cls-1" d="M428.28,80.57v40.72c0,8.6,5.83,14.33,16.21,14.33s16.11-5.73,16.11-14.33v-40.72h14.43v40.22c0,18.18-14.43,26.88-30.54,26.88s-30.64-8.7-30.64-26.88v-40.22h14.43Z"/>
      <path class="cls-1" d="M510.02,80.57l23.53,40.82c.49.79,1.48.79,1.87,0l23.52-40.82h14.73v66.22h-14.43v-42l-15.02,25.4c-2.67,4.54-5.63,6.23-9.88,6.23s-7.32-1.68-9.88-6.23l-15.02-25.4v42h-14.23v-66.22h14.82-.01Z"/>
      <path class="cls-1" d="M132.85,5.8v6.95h-36.02v17.97h34.58v6.95h-34.58v10.59c0,4.24,3.14,7.38,7.37,7.38h28.65v6.95h-30.77c-7.97,0-13.82-5.51-13.82-12.97V5.8h44.59Z"/>
      <path class="cls-1" d="M226.57,34.2c0,18.99-9.66,28.39-29.16,28.39h-24.58V5.8h24.58c19.49,0,29.16,9.41,29.16,28.39h0ZM197.42,55.64c13.56,0,20.34-7.29,20.34-21.44s-6.78-21.44-20.34-21.44h-16.02v42.89h16.02Z"/>
      <path class="cls-1" d="M28.74,27.77c1.8-1.8,2.71-3.99,2.71-6.51,0-2.25-.73-4.23-2.16-5.92l-.56-.62c-1.81-1.78-4.02-2.69-6.56-2.69H3.36v18.46h18.81c2.56,0,4.77-.92,6.57-2.72ZM8.22,16.18h14.95c.97,0,1.72.47,2.42,1.52.71,1.06,1.02,2.16,1.02,3.56v2.02l-1.02,1.54c-.7,1.05-1.45,1.52-2.42,1.52h-14.95v-10.17h0Z"/>
      <path class="cls-1" d="M43.59,14.8c-1.01-3.26-2.74-6.15-5.18-8.59C34.27,2.09,29.23,0,23.42,0H8C5.44,0,3.36,2.08,3.36,4.64v1.89h20.06c4.03,0,7.55,1.45,10.44,4.3,1.53,1.52,2.67,3.3,3.39,5.32-.92,1-1.44,2.29-1.44,3.65,0,1.7.77,3.26,2.05,4.3-.53,2.92-1.88,5.46-4.01,7.57-2.89,2.86-6.4,4.31-10.44,4.31h-2.73l-2.03,3.68.74,1.23c5.26,8.75,9.06,15.08,11.47,19.14h-4.61c-2.79,0-5.36-1.52-6.7-3.96l-8.06-14.62c.32-.67.49-1.4.49-2.16,0-1.47-.54-2.8-1.56-3.85-1-1.01-2.35-1.57-3.79-1.57h0c-1.44,0-2.79.56-3.82,1.58-1.01,1.04-1.54,2.34-1.54,3.77s.54,2.79,1.55,3.78c.85.86,1.89,1.38,3.05,1.53l8.74,15.96c2.01,3.67,5.85,5.95,10.04,5.95h17.71l-14.69-24.37c4.1-.82,7.72-2.8,10.8-5.91,3.25-3.28,5.22-7.22,5.85-11.73,1.58-1,2.58-2.75,2.58-4.64,0-2.23-1.32-4.15-3.32-5.01v.02ZM6.32,42.27c-1.55,0-2.8-1.25-2.8-2.8s1.25-2.8,2.8-2.8,2.8,1.25,2.8,2.8-1.25,2.8-2.8,2.8ZM41.58,22.97c-1.55,0-2.8-1.25-2.8-2.8s1.25-2.8,2.8-2.8,2.8,1.25,2.8,2.8-1.25,2.8-2.8,2.8Z"/>
    </g>
  </g>
</svg>