<svg xmlns="http://www.w3.org/2000/svg" width="241.768" height="168.067" viewBox="0 0 241.768 168.067">
  <g id="Grupo_26621" data-name="Grupo 26621" transform="translate(-431 -398)">
    <g id="Grupo_26620" data-name="Grupo 26620" transform="translate(431 398)">
      <path id="Trazado_10240" data-name="Trazado 10240" d="M4158,5216l109.575,41.724v86.163l-104.505-47.168Z" transform="translate(-4125.634 -5177.396)" fill="#c9a281"/>
      <path id="Trazado_10241" data-name="Trazado 10241" d="M4443.679,5323.39l-1.56,87.348-3.12-1.576V5323Z" transform="translate(-4297.059 -5242.671)" fill="#c1987a"/>
      <path id="Trazado_10242" data-name="Trazado 10242" d="M4505.492,5240l-3.51,82.278L4447,5360.1l1.56-87.348Z" transform="translate(-4301.939 -5192.036)" fill="#d7b68d"/>
      <path id="Trazado_10243" data-name="Trazado 10243" d="M4327,5125.579l26.517-8.579,103.336,36.265-24.567,11.7Z" transform="translate(-4228.733 -5117)" fill="#ebd1ae"/>
      <path id="Trazado_10244" data-name="Trazado 10244" d="M4150.669,5144.459l-57.74,24.567H4118.3l65.9-30.026Z" transform="translate(-4085.938 -5130.421)" fill="#ebd1ae"/>
      <path id="Trazado_10245" data-name="Trazado 10245" d="M4512.831,5240l38.215,20.277-53.813,32.755-38.2-22.079Z" transform="translate(-4309.278 -5192.036)" fill="#e5c69f"/>
      <path id="Trazado_10246" data-name="Trazado 10246" d="M4327,5139l105.286,39.384-56.932,32.756-4.68-.39L4327,5193.027Z" transform="translate(-4228.733 -5130.421)" fill="#977251"/>
      <path id="Trazado_10247" data-name="Trazado 10247" d="M4158,5169.026,4223.9,5139v54.027Z" transform="translate(-4125.634 -5130.421)" fill="#8c6748"/>
      <path id="Trazado_10248" data-name="Trazado 10248" d="M4107.366,5216,4075,5235.5l107.236,46.014,34.705-23.787Z" transform="translate(-4075 -5177.396)" fill="#dab894"/>
      <path id="Trazado_10249" data-name="Trazado 10249" d="M4158,5216l109.575,41.724L4223.9,5240Z" transform="translate(-4125.634 -5177.396)" fill="#c6a389"/>
    </g>
  </g>
</svg>
