<svg id="Capa_2" data-name="Capa 2" xmlns="http://www.w3.org/2000/svg" width="176.252" height="148.895" viewBox="0 0 176.252 148.895">
  <g id="Grupo_26598" data-name="Grupo 26598">
    <path id="Trazado_10135" data-name="Trazado 10135" d="M0,46l2.488,86.683L91.66,175.817l1.29-97.765Z" transform="translate(0 -26.922)" fill="#d1a881"/>
    <path id="Trazado_10136" data-name="Trazado 10136" d="M40.276,25,0,33.71,92.95,65.762l35.772-11.854Z" transform="translate(0 -14.631)" fill="#dbbc96"/>
    <path id="Trazado_10137" data-name="Trazado 10137" d="M305.592,67l-83.3,23.342L221,188.107,302.291,157Z" transform="translate(-129.34 -39.212)" fill="#d7b68d"/>
    <path id="Trazado_10138" data-name="Trazado 10138" d="M156.292,0,126.65,7.051l89.914,28.2,33.81-7.465Z" transform="translate(-74.122)" fill="#ebd1ae"/>
    <path id="Trazado_10139" data-name="Trazado 10139" d="M103.311,21.23l-6.2,1.564L185.555,51.7l5.234-1.622Z" transform="translate(-56.834 -12.425)" fill="#eee7da"/>
    <path id="Trazado_10140" data-name="Trazado 10140" d="M208.025,45.2l-8.486,2.4L112.06,18.754,118.111,17Z" transform="translate(-65.583 -9.949)" fill="#eee7da"/>
    <path id="Trazado_10141" data-name="Trazado 10141" d="M309.543,67l-33.81,7.465-13.72,4.023L227.75,89.844Z" transform="translate(-133.291 -39.212)" fill="#987450"/>
    <path id="Trazado_10142" data-name="Trazado 10142" d="M314.83,92.826v23.388L327.343,112V89.33Z" transform="translate(-184.254 -52.28)" fill="#e3cbaf"/>
    <path id="Trazado_10143" data-name="Trazado 10143" d="M309.564,259.442,321.857,254v24.736L309,283.862Z" transform="translate(-180.842 -148.654)" fill="#e4cbb0"/>
    <path id="Trazado_10144" data-name="Trazado 10144" d="M324.08,85l-13.72,4.023,1.854,1.269,12.513-3.5Z" transform="translate(-181.638 -49.746)" fill="#e0c5a0"/>
  </g>
</svg>
