<svg xmlns="http://www.w3.org/2000/svg" id="Capa_1" data-name="Capa 1" viewBox="0 0 1176 330.45">
    <defs>
        <style>
            .cls-1 {
                fill: #574B4F;
            }
        </style>
    </defs>
    <title>power-by-nuxiba-blanco</title>
    <path class="cls-1"
        d="M216.55,120.05c0-41.44-85.66-64.6-209.93-77.07v.9c110.48,11.82,185,32.69,185,68.43,0,37-71.47,70.2-185,93.08v20.73C134.71,201.05,216.55,162.85,216.55,120.05Z" />
    <path class="cls-1" d="M60.53,79.44c0-11.82-19.87-20.94-53.91-27.93v62.25C41.08,103.47,60.53,91.8,60.53,79.44Z" />
    <path class="cls-1"
        d="M298.23,12.5H21A14.4,14.4,0,0,0,6.62,26.9V41.05c156.9,13.81,270.2,42.75,270.2,100,0,58.91-107.46,110.74-270.2,140.85V304.1A14.4,14.4,0,0,0,21,318.5H298.23a14.4,14.4,0,0,0,14.39-14.4V26.9A14.4,14.4,0,0,0,298.23,12.5Z" />
    <path class="cls-1"
        d="M135.66,96.73c0-24.45-50.35-40.32-129-50.45v1.24C71.83,56.83,112.54,70.67,112.54,91c0,21.16-39.49,40.65-105.92,56.26v15.91C87,145.37,135.66,122.14,135.66,96.73Z" />
    <path class="cls-1"
        d="M656.62,262.45c0,50-25,60-45,60-55,0-55-55-55-55v-70h30v70c0,20,15,25,25,25s35-5,35-30v-65h30v120h-25l-5-55Z" />
    <path class="cls-1"
        d="M941.62,192.45c-17.74,0-28.49,7-35,16.71V147.45h-30v170h25l1.5-18c5.89,12.82,17.11,23,38.5,23,45,0,55-35,55-65S986.62,192.45,941.62,192.45Zm-5,100c-20,0-30-15-30-35s10-35,30-35,30,15,30,35S956.62,292.45,936.62,292.45Z" />
    <rect class="cls-1" x="826.63" y="197.45" width="30" height="120" />
    <rect class="cls-1" x="826.63" y="147.45" width="30" height="30" />
    <path class="cls-1"
        d="M1071.62,192.45c-30,0-55,10-55,45h30c0-10,5-15,25-15,25,0,30,5,30,20v8.34c-8-6.87-21.08-8.34-40-8.34-40,0-50,20-50,40s10,40,50,40c17.56,0,35.1-2.48,44-16.07l1,11.07h25v-75C1131.62,197.45,1101.62,192.45,1071.62,192.45Zm0,105c-15,0-30,0-30-15s15-15,30-15,30,0,30,15S1086.62,297.45,1071.62,297.45Z" />
    <path class="cls-1"
        d="M1139.09,155.78h8.51a8.54,8.54,0,0,1,4.06.95,6.81,6.81,0,0,1,2.75,2.62,7.44,7.44,0,0,1,1,3.8,6.17,6.17,0,0,1-1.42,4,8.13,8.13,0,0,1-3.57,2.53l0,.22,6.25,9v.26h-5l-6-8.77h-2v8.77h-4.4Zm8.48,10.53a3.37,3.37,0,0,0,2.44-.91,3.08,3.08,0,0,0,.94-2.32,3.14,3.14,0,0,0-3.32-3.22h-4.14v6.45Z" />
    <path class="cls-1"
        d="M1146.62,187.45a20,20,0,1,1,20-20A20,20,0,0,1,1146.62,187.45Zm0-36.67a16.67,16.67,0,1,0,16.67,16.67A16.68,16.68,0,0,0,1146.62,150.78Z" />
    <polygon class="cls-1"
        points="506.63 147.45 506.63 274.62 417.55 147.45 406.63 147.45 376.63 147.45 376.63 317.45 406.63 317.45 406.63 184.97 495.7 317.45 506.63 317.45 536.63 317.45 536.63 147.45 506.63 147.45" />
    <polygon class="cls-1"
        points="811.63 197.45 771.63 197.45 751.63 237.45 731.63 197.45 691.63 197.45 731.63 257.45 691.63 317.45 731.63 317.45 751.63 277.45 771.63 317.45 811.63 317.45 771.63 257.45 811.63 197.45" />
    <path class="cls-1"
        d="M376.62,13.77h28.06q28.17,0,28.18,26.1,0,13.4-7.28,20T404.8,66.42H390.25V94.6H376.62ZM403.18,55q8.08,0,12.07-3.63t4-11.26q0-7.74-4-11.32T403,25.2h-12.7V55Z" />
    <path class="cls-1"
        d="M452.14,91.77A26.66,26.66,0,0,1,442,81a32.15,32.15,0,0,1-3.53-15A32.21,32.21,0,0,1,442,51a26.64,26.64,0,0,1,10.1-10.79,32.22,32.22,0,0,1,31.06,0,26.23,26.23,0,0,1,10,10.79,32.67,32.67,0,0,1,3.47,15,32.61,32.61,0,0,1-3.47,15,26.25,26.25,0,0,1-10,10.8,32.29,32.29,0,0,1-31.06,0Zm27.19-12q4.21-5.08,4.22-13.86t-4.22-13.8Q475.12,47,467.61,47T456,52.16q-4.15,5.15-4.16,13.8T456,79.82q4.16,5.09,11.66,5.08T479.33,79.82Z" />
    <path class="cls-1"
        d="M501.9,37.33h13.28l10.28,42L536.77,38.6h11.55l11.2,40.76,10.39-42h13.28L566.33,94.6H554.44L542.55,55.46,530.65,94.6H518.76Z" />
    <path class="cls-1"
        d="M602.42,91.71A26.66,26.66,0,0,1,591.85,80.8a32.68,32.68,0,0,1-3.58-15.3,32.74,32.74,0,0,1,3.29-14.72,25.47,25.47,0,0,1,9.7-10.57,28.34,28.34,0,0,1,15.07-3.92,26.42,26.42,0,0,1,13.22,3.17,21.54,21.54,0,0,1,8.55,8.72A26.71,26.71,0,0,1,641,60.88a29.93,29.93,0,0,1-.81,7.05H601.67q1,8.88,6.17,12.93a20,20,0,0,0,12.76,4,34.1,34.1,0,0,0,17-4.27l.92,10.74a42.32,42.32,0,0,1-19.17,4.38Q609.4,95.75,602.42,91.71Zm25.46-32.56A12.91,12.91,0,0,0,625,50.61q-2.9-3.47-8.77-3.47-11.21,0-14.09,12Z" />
    <path class="cls-1"
        d="M652.24,37.33H663.9l.69,7.27a25.78,25.78,0,0,1,7.16-6.12,16.79,16.79,0,0,1,8.43-2.31,16,16,0,0,1,2.54.23l-1,13.17a14.6,14.6,0,0,0-4.39-.58,15,15,0,0,0-7.15,1.79A11.46,11.46,0,0,0,665.4,55V94.6H652.24Z" />
    <path class="cls-1"
        d="M700.45,91.71A26.66,26.66,0,0,1,689.88,80.8a32.56,32.56,0,0,1-3.58-15.3,32.74,32.74,0,0,1,3.29-14.72,25.47,25.47,0,0,1,9.7-10.57,28.34,28.34,0,0,1,15.07-3.92,26.42,26.42,0,0,1,13.22,3.17,21.54,21.54,0,0,1,8.55,8.72,26.71,26.71,0,0,1,2.94,12.7,29.93,29.93,0,0,1-.81,7.05H699.7q1,8.88,6.17,12.93a20,20,0,0,0,12.76,4,34.1,34.1,0,0,0,17-4.27l.92,10.74a42.32,42.32,0,0,1-19.17,4.38Q707.43,95.75,700.45,91.71Zm25.46-32.56A12.91,12.91,0,0,0,723,50.61q-2.89-3.47-8.78-3.47-11.19,0-14.08,12Z" />
    <path class="cls-1"
        d="M802,8V94.6H790.1l-.57-4.85a23.28,23.28,0,0,1-16.28,6,24.64,24.64,0,0,1-14-4A26.12,26.12,0,0,1,750,81a34.11,34.11,0,0,1-3.23-15A34.81,34.81,0,0,1,750,51.18a26.25,26.25,0,0,1,9.12-10.85,24.61,24.61,0,0,1,14.15-4,23.52,23.52,0,0,1,15.82,5.54V8ZM786,79.93q4-5,4-13.85t-4-13.86a13.07,13.07,0,0,0-10.74-5.08,13.22,13.22,0,0,0-11.09,5.26q-4,5.25-4,13.68t4,13.57a14.28,14.28,0,0,0,21.89.28Z" />
    <path class="cls-1"
        d="M886.92,40.33a25.71,25.71,0,0,1,8.89,10.8A35.52,35.52,0,0,1,898.87,66a35.17,35.17,0,0,1-3.17,15,26.13,26.13,0,0,1-9,10.8,23.64,23.64,0,0,1-13.68,4q-10.17,0-16.86-6l-.58,4.85H843.68V8h12.93V42.29a24.8,24.8,0,0,1,16.4-6A23.86,23.86,0,0,1,886.92,40.33Zm-5.2,39.32q3.87-5.27,3.87-13.69t-3.87-13.62a12.34,12.34,0,0,0-10.45-5.2c-4.84,0-8.62,1.66-11.31,5s-4,7.93-4,13.85,1.34,10.67,4,14,6.47,5,11.31,5A12.31,12.31,0,0,0,881.72,79.65Z" />
    <path class="cls-1" d="M926.35,91.25l-23.9-53.92h14.32l15.82,38.91,15.35-38.91h14.44L926.7,122.54H913.42Z" />
</svg>