<svg xmlns="http://www.w3.org/2000/svg" width="24" height="24" viewBox="0 0 24 24">
  <g id="Icon-plus" transform="translate(24) rotate(90)">
    <rect id="Rectángulo_11001" data-name="Rectángulo 11001" width="24" height="24" fill="none"/>
    <g id="页面-1">
      <g id="Arrow" transform="translate(-720)">
        <g id="move_line" transform="translate(720)">
          <path id="MingCute" d="M24,0V24H0V0ZM12.593,23.258l-.012,0-.071.036-.019,0h0l-.015,0-.071-.036a.021.021,0,0,0-.024.005l0,.011-.017.427,0,.02.011.012.1.074.015,0h0l.012,0,.1-.074.013-.016h0l0-.017-.017-.427a.021.021,0,0,0-.016-.018Zm.265-.113-.014,0-.185.092-.01.01h0l0,.011.018.43,0,.013h0l.008.007.2.093a.025.025,0,0,0,.028-.008l0-.014-.034-.615a.025.025,0,0,0-.019-.021Zm-.715,0a.023.023,0,0,0-.027.005l-.006.014-.034.615a.023.023,0,0,0,.017.023h.016l.2-.093.009-.008h0l0-.012.018-.43,0-.013h0l-.009-.009Z" fill="none"/>
          <path id="路径" d="M8.464,6.707a1,1,0,0,1,0-1.414l2.758-2.758a1.1,1.1,0,0,1,1.556,0l2.758,2.758a1,1,0,1,1-1.414,1.414L13,5.586V11h5.414L17.293,9.879a1,1,0,0,1,1.414-1.414l2.758,2.758a1.1,1.1,0,0,1,0,1.556l-2.758,2.758a1,1,0,0,1-1.414-1.414L18.414,13H13v5.414l1.121-1.121a1,1,0,1,1,1.414,1.414l-2.758,2.758a1.1,1.1,0,0,1-1.556,0L8.464,18.707a1,1,0,0,1,1.414-1.414L11,18.414V13H5.586l1.121,1.121a1,1,0,1,1-1.414,1.414L2.535,12.778a1.1,1.1,0,0,1,0-1.556L5.293,8.464A1,1,0,0,1,6.707,9.879L5.586,11H11V5.586L9.879,6.707A1,1,0,0,1,8.464,6.707Z" fill="#fff"/>
        </g>
      </g>
    </g>
  </g>
</svg>
