<?xml version="1.0" encoding="UTF-8"?>
<svg id="final" xmlns="http://www.w3.org/2000/svg" xmlns:xlink="http://www.w3.org/1999/xlink" viewBox="0 0 500 249.31">
  <defs>
    <style>
      .cls-1 {
        fill: #e5e5e5;
      }

      .cls-2 {
        fill: url(#Degradado_sin_nombre_115);
      }

      .cls-3 {
        fill: url(#Degradado_sin_nombre_115-5);
      }

      .cls-4 {
        fill: url(#Degradado_sin_nombre_115-6);
      }

      .cls-5 {
        fill: url(#Degradado_sin_nombre_115-3);
      }

      .cls-6 {
        fill: url(#Degradado_sin_nombre_115-4);
      }

      .cls-7 {
        fill: url(#Degradado_sin_nombre_115-2);
      }
    </style>
    <linearGradient id="Degradado_sin_nombre_115" data-name="Degradado sin nombre 115" x1="108.84" y1="88.6" x2="103.31" y2="133.15" gradientUnits="userSpaceOnUse">
      <stop offset="0" stop-color="#09487c"/>
      <stop offset="1" stop-color="#675a78"/>
    </linearGradient>
    <linearGradient id="Degradado_sin_nombre_115-2" data-name="Degradado sin nombre 115" x1="108.84" y1="88.6" x2="103.31" y2="133.15" xlink:href="#Degradado_sin_nombre_115"/>
    <linearGradient id="Degradado_sin_nombre_115-3" data-name="Degradado sin nombre 115" x1="107.33" y1="88.41" x2="101.8" y2="132.96" xlink:href="#Degradado_sin_nombre_115"/>
    <linearGradient id="Degradado_sin_nombre_115-4" data-name="Degradado sin nombre 115" x1="72.48" y1="84.09" x2="66.95" y2="128.64" xlink:href="#Degradado_sin_nombre_115"/>
    <linearGradient id="Degradado_sin_nombre_115-5" data-name="Degradado sin nombre 115" x1="113.3" y1="89.15" x2="107.77" y2="133.7" xlink:href="#Degradado_sin_nombre_115"/>
    <linearGradient id="Degradado_sin_nombre_115-6" data-name="Degradado sin nombre 115" x1="91.6" y1="86.46" x2="86.07" y2="131.01" xlink:href="#Degradado_sin_nombre_115"/>
  </defs>
  <g>
    <path class="cls-1" d="M97.46,149.68c-.6,0-1.16-.3-1.49-.8l-13.21-19.81c-.79-1.18-1.2-2.56-1.2-3.98s.42-2.8,1.2-3.98l7.18-10.77c1.34-2,3.57-3.2,5.98-3.2h17.24c2.41,0,4.64,1.2,5.98,3.2l7.18,10.77c.79,1.18,1.2,2.56,1.2,3.98s-.42,2.8-1.2,3.98l-7.18,10.77c-1.34,2-3.57,3.2-5.98,3.2h-9.78c-.64,0-1.23.34-1.55.9l-2.81,4.85c-.31.54-.88.88-1.5.89-.02,0-.04,0-.06,0ZM95.92,110.72c-1.2,0-2.32.6-2.99,1.6l-7.18,10.77c-.39.59-.6,1.28-.6,1.99s.21,1.4.6,1.99l11.61,17.41,1.36-2.35c.96-1.66,2.75-2.69,4.66-2.69h9.78c1.2,0,2.32-.6,2.99-1.6l7.18-10.77c.39-.59.6-1.28.6-1.99s-.21-1.4-.6-1.99l-7.18-10.77c-.67-1-1.79-1.6-2.99-1.6h-17.24Z"/>
    <path class="cls-1" d="M119.18,123.95c0-5.78-11.95-9.01-29.29-10.75v.12c15.42,1.65,25.82,4.56,25.82,9.55s-9.97,9.8-25.82,12.99v2.89c17.87-3.5,29.29-8.83,29.29-14.8Z"/>
    <path class="cls-1" d="M97.42,118.29c0-1.65-2.77-2.92-7.52-3.9l-5.61,10.14,5.61-1.45c4.81-1.44,7.52-3.06,7.52-4.79Z"/>
    <path class="cls-1" d="M107.9,120.7c0-3.41-7.03-5.63-18-7.04v.17c9.1,1.3,14.78,3.23,14.78,6.07s-5.51,5.67-14.78,7.85l-4.74.66,2.21,2.27c11.22-2.48,20.54-6.43,20.54-9.98Z"/>
    <path class="cls-2" d="M104.54,170.17c-25.88,0-46.93-21.05-46.93-46.93s21.05-46.93,46.93-46.93,46.93,21.05,46.93,46.93-21.05,46.93-46.93,46.93ZM104.54,77.68c-25.12,0-45.56,20.44-45.56,45.56s20.44,45.56,45.56,45.56,45.56-20.44,45.56-45.56-20.44-45.56-45.56-45.56Z"/>
    <path class="cls-7" d="M104.54,97.95c-29.34,0-52.33,11.11-52.33,25.29,0,10.79,13.32,19.79,32.61,23.49-.23-.59-.4-1.22-.49-1.86-18.07-3.63-30.74-11.95-30.74-21.63,0-13,22.86-23.57,50.95-23.57s50.95,10.57,50.95,23.57c0,12.22-21.93,22.57-47.71,23.73.11.47.19.96.23,1.44.03.09.33,0,1.82,0,26.77-1.24,47.04-11.85,47.04-25.17,0-14.18-22.98-25.29-52.33-25.29Z"/>
    <circle class="cls-5" cx="106.05" cy="98.7" r="3.05"/>
    <circle class="cls-6" cx="71.57" cy="91.42" r="4.77"/>
    <circle class="cls-3" cx="106.05" cy="147.53" r="3.05"/>
    <circle class="cls-4" cx="84.28" cy="145.41" r="1.68"/>
  </g>
  <g>
    <path class="cls-1" d="M302.62,146.98c0,2.28-1.65,3.67-4.39,3.67h-2.6v3.19h-1.5v-10.52h4.1c2.74,0,4.39,1.38,4.39,3.67ZM301.12,146.98c0-1.5-1.01-2.36-2.93-2.36h-2.56v4.72h2.56c1.92,0,2.93-.86,2.93-2.36Z"/>
    <path class="cls-1" d="M303.86,149.85c0-2.37,1.76-4.06,4.15-4.06s4.13,1.68,4.13,4.06-1.74,4.07-4.13,4.07-4.15-1.7-4.15-4.07ZM310.69,149.85c0-1.7-1.14-2.8-2.68-2.8s-2.69,1.1-2.69,2.8,1.16,2.81,2.69,2.81,2.68-1.11,2.68-2.81Z"/>
    <path class="cls-1" d="M325.98,145.87l-2.98,7.97h-1.38l-2.3-6.04-2.33,6.04h-1.38l-2.96-7.97h1.37l2.31,6.34,2.41-6.34h1.22l2.36,6.37,2.37-6.37h1.29Z"/>
    <path class="cls-1" d="M334.4,150.33h-6.46c.18,1.4,1.31,2.33,2.89,2.33.93,0,1.71-.31,2.3-.96l.8.93c-.72.84-1.82,1.29-3.14,1.29-2.57,0-4.28-1.7-4.28-4.07s1.7-4.06,4-4.06,3.94,1.65,3.94,4.1c0,.12-.01.3-.03.44ZM327.93,149.29h5.11c-.15-1.34-1.16-2.29-2.55-2.29s-2.41.93-2.56,2.29Z"/>
    <path class="cls-1" d="M340.72,145.79v1.4c-.12-.02-.23-.02-.33-.02-1.55,0-2.51.95-2.51,2.69v3.97h-1.44v-7.97h1.38v1.34c.51-.93,1.5-1.41,2.9-1.41Z"/>
    <path class="cls-1" d="M349.59,150.33h-6.46c.18,1.4,1.31,2.33,2.89,2.33.93,0,1.71-.31,2.3-.96l.8.93c-.72.84-1.82,1.29-3.14,1.29-2.57,0-4.28-1.7-4.28-4.07s1.7-4.06,4-4.06,3.94,1.65,3.94,4.1c0,.12-.01.3-.03.44ZM343.13,149.29h5.11c-.15-1.34-1.16-2.29-2.55-2.29s-2.41.93-2.56,2.29Z"/>
    <path class="cls-1" d="M359.15,142.68v11.15h-1.38v-1.26c-.65.9-1.67,1.35-2.84,1.35-2.33,0-4.03-1.64-4.03-4.07s1.7-4.06,4.03-4.06c1.13,0,2.12.42,2.78,1.28v-4.39h1.44ZM357.72,149.85c0-1.7-1.16-2.8-2.68-2.8s-2.69,1.1-2.69,2.8,1.16,2.81,2.69,2.81,2.68-1.11,2.68-2.81Z"/>
    <path class="cls-1" d="M374.19,149.85c0,2.44-1.7,4.07-4.03,4.07-1.17,0-2.19-.45-2.84-1.35v1.26h-1.38v-11.15h1.44v4.39c.66-.86,1.65-1.28,2.78-1.28,2.33,0,4.03,1.62,4.03,4.06ZM372.73,149.85c0-1.7-1.16-2.8-2.69-2.8s-2.68,1.1-2.68,2.8,1.16,2.81,2.68,2.81,2.69-1.11,2.69-2.81Z"/>
    <path class="cls-1" d="M383.02,145.87l-3.86,8.76c-.71,1.68-1.62,2.21-2.84,2.21-.77,0-1.55-.26-2.04-.74l.62-1.08c.39.37.89.59,1.43.59.69,0,1.13-.31,1.52-1.23l.26-.56-3.52-7.95h1.5l2.78,6.37,2.75-6.37h1.41Z"/>
    <path class="cls-1" d="M397.85,148.91l-5.49-9.25c-.36-.62-1.03-.99-1.74-.99h-2.03v12.81c0,1.16.94,2.11,2.11,2.11h.9v-10.24l5.49,9.25c.36.62,1.03.99,1.74.99h0c1.12,0,2.03-.91,2.03-2.03v-12.89s-.98,0-.98,0c-1.12,0-2.03.91-2.03,2.03v8.22Z"/>
    <path class="cls-1" d="M409.32,143.2c.02,1.53,0,6.12,0,6.12,0,1.29-.66,1.93-1.97,1.93s-1.97-.64-1.97-1.93v-6.13c0-.79-.64-1.43-1.43-1.43h-1.48v6.97c0,1.95.5,3.22,1.51,3.86,1.01.66,2.08.99,3.29.99s2.39-.31,3.42-.9c1.03-.64,1.54-1.95,1.54-3.95v-6.97h-1.49c-.97,0-1.41.48-1.4,1.45Z"/>
    <path class="cls-1" d="M424.06,141.98h-2.23c-.69,0-1.34.37-1.68.98l-1.37,2.42-1.37-2.42c-.34-.6-.98-.98-1.68-.98h-2.23l2.53,4.03c.62.99.62,2.26,0,3.25l-2.74,4.32h2.45c.7,0,1.34-.37,1.68-.98l1.37-2.43,1.37,2.43c.34.61.99.98,1.68.98h2.45l-2.74-4.32c-.63-.99-.63-2.25,0-3.25l2.53-4.03Z"/>
    <rect class="cls-1" x="425.46" y="138.69" width="2.91" height="2.66" rx="1.33" ry="1.33"/>
    <path class="cls-1" d="M425.46,153.58h2.92v-7.85c0-1.61-1.31-2.92-2.92-2.92h0v10.77Z"/>
    <path class="cls-1" d="M436.23,141.63c-1.45,0-2.54.59-3.29,1.8v-3.29c0-.97-.48-1.47-1.45-1.47h-1.47v9.72c0,3.49,1.82,5.22,5.44,5.2,3.6-.07,5.4-2.02,5.4-5.88s-1.54-5.97-4.63-6.08ZM435.38,151.1c-1.67,0-2.46-1.18-2.43-3.53.09-2.24.9-3.33,2.48-3.33s2.39,1.1,2.46,3.33c0,2.35-.83,3.53-2.5,3.53Z"/>
    <path class="cls-1" d="M446.12,153.65c1.45,0,3.26-.59,4-1.8l-.71.26c0,.97,1.2,1.47,2.16,1.47h.76v-6.68c0-3.49-1.82-5.22-5.44-5.2-3.6.07-5.4,2.02-5.4,5.88s1.54,5.97,4.63,6.08ZM446.97,144.18c1.67,0,2.46,1.18,2.43,3.53-.09,2.24-.9,3.33-2.48,3.33s-2.39-1.1-2.46-3.33c0-2.35.83-3.53,2.5-3.53Z"/>
    <path class="cls-1" d="M454.83,139.49h.81c.14,0,.27.03.38.09.11.06.2.14.26.25.06.11.09.23.09.36,0,.14-.04.27-.13.38-.09.11-.2.19-.34.24v.02s.59.85.59.85v.02h-.48l-.57-.83h-.19v.83h-.42v-2.21ZM455.63,140.49c.09,0,.17-.03.23-.09.06-.06.09-.13.09-.22s-.03-.16-.08-.22c-.06-.06-.13-.09-.23-.09h-.39v.61h.39Z"/>
    <path class="cls-1" d="M455.54,142.49c-1.04,0-1.89-.85-1.89-1.89s.85-1.89,1.89-1.89,1.89.85,1.89,1.89-.85,1.89-1.89,1.89ZM455.54,139.02c-.87,0-1.58.71-1.58,1.58s.71,1.58,1.58,1.58,1.58-.71,1.58-1.58-.71-1.58-1.58-1.58Z"/>
    <g>
      <path class="cls-1" d="M201.2,120.47c1.03,0,1.88-.19,2.54-.57.67-.38,1.19-.84,1.57-1.38.38-.55.64-1.14.77-1.79.14-.65.21-1.25.21-1.79s-.07-1.14-.21-1.79c-.14-.65-.39-1.25-.77-1.79-.38-.54-.9-1.01-1.57-1.38s-1.51-.57-2.54-.57h-18.35c-1.06,0-1.91.19-2.57.57-.65.38-1.17.84-1.54,1.38-.38.55-.64,1.14-.77,1.79-.14.65-.21,1.25-.21,1.79s.07,1.14.21,1.79c.14.65.39,1.25.77,1.79.38.54.89,1.01,1.54,1.38.65.38,1.51.57,2.57.57h9.36c.61,0,1.12.21,1.54.64.42.43.64.94.64,1.54s-.21,1.12-.64,1.54c-.42.42-.94.64-1.54.64h-10.76c-1.24-.06-2.35-.4-3.32-1.02-.97-.62-1.79-1.4-2.48-2.34-.68-.94-1.2-1.98-1.57-3.13-.36-1.15-.54-2.29-.54-3.41s.19-2.31.57-3.48c.38-1.17.93-2.23,1.66-3.18.73-.95,1.61-1.73,2.63-2.34,1.03-.61,2.2-.91,3.5-.91h20.71c1.24.06,2.35.4,3.32,1.02.97.62,1.79,1.4,2.48,2.34.68.94,1.2,1.98,1.57,3.13.36,1.15.55,2.29.55,3.41s-.19,2.31-.57,3.47c-.38,1.17-.93,2.23-1.66,3.18-.73.95-1.61,1.73-2.63,2.34-1.03.61-2.2.91-3.5.91h-.95c-.61,0-1.12-.21-1.54-.64-.43-.42-.64-.94-.64-1.54s.21-1.12.64-1.54.94-.64,1.54-.64ZM206.09,127.91c0-.62.21-1.14.64-1.57.43-.43.95-.64,1.57-.64s1.14.21,1.57.64c.43.43.64.95.64,1.57s-.21,1.14-.64,1.57c-.43.43-.95.64-1.57.64s-1.14-.21-1.57-.64c-.43-.43-.64-.95-.64-1.57ZM196.06,116.69c0-.62.21-1.14.64-1.57.43-.43.95-.64,1.57-.64s1.14.21,1.57.64c.43.43.64.95.64,1.57s-.21,1.14-.64,1.57c-.43.43-.95.64-1.57.64s-1.14-.21-1.57-.64c-.43-.43-.64-.95-.64-1.57Z"/>
      <path class="cls-1" d="M219.62,116.72c.14.65.39,1.25.77,1.79.38.54.89,1.01,1.54,1.38.65.38,1.51.57,2.57.57h18.08c1.03,0,1.88-.19,2.55-.57.66-.38,1.19-.84,1.57-1.38.38-.55.64-1.14.77-1.79.14-.65.2-1.25.2-1.79v-7.68c0-.61.21-1.12.64-1.54s.94-.64,1.54-.64,1.12.21,1.54.64c.42.42.64.94.64,1.54v7.68c0,1.15-.19,2.31-.57,3.47-.38,1.17-.93,2.23-1.66,3.18-.73.95-1.61,1.73-2.64,2.34-1.03.61-2.19.91-3.5.91h-20.72c-1.24-.06-2.35-.4-3.32-1.02-.97-.62-1.79-1.4-2.47-2.34-.68-.94-1.2-1.98-1.57-3.13-.36-1.15-.54-2.29-.54-3.41v-7.68c0-.61.21-1.12.64-1.54.43-.42.94-.64,1.54-.64s1.12.21,1.54.64c.42.42.64.94.64,1.54v7.68c0,.54.07,1.14.21,1.79Z"/>
      <path class="cls-1" d="M259.3,124.01c-.46.55-1.02.82-1.68.82-.61,0-1.12-.21-1.54-.64-.43-.42-.64-.94-.64-1.54,0-.54.15-.98.45-1.32l11.04-14.85c.51-.7,1.2-1.26,2.04-1.7.85-.44,1.76-.66,2.73-.66.91,0,1.77.2,2.59.59s1.48.94,2,1.63l11.04,14.76c.18.21.33.45.45.7.12.26.18.54.18.84,0,.61-.21,1.12-.64,1.54-.43.42-.94.64-1.54.64-.73,0-1.3-.29-1.73-.86l-10.58-14.13c-.21-.24-.48-.51-.79-.8-.32-.29-.64-.43-.98-.43s-.66.14-.98.43c-.32.29-.57.55-.75.8l-10.68,14.17Z"/>
      <path class="cls-1" d="M324.08,105.66c.42-.42.94-.64,1.54-.64s1.12.21,1.54.64c.42.42.64.94.64,1.54v13.22c0,1.24-.42,2.29-1.25,3.14-.83.85-1.87,1.27-3.11,1.27-.43,0-.84-.06-1.25-.18s-.78-.29-1.11-.5l-20.8-12.72c-.57-.33-1.05-.6-1.43-.79-.38-.2-.69-.3-.93-.3-.45,0-.74.29-.86.86-.12.57-.18,1.41-.18,2.5v8.95c0,.61-.21,1.12-.64,1.54-.43.42-.94.64-1.54.64s-1.12-.21-1.54-.64c-.42-.42-.64-.94-.64-1.54v-13.22c0-1.24.42-2.29,1.25-3.14.83-.85,1.87-1.27,3.11-1.27.42,0,.84.06,1.25.18.41.12.78.29,1.11.5l20.8,12.72c.57.33,1.05.6,1.43.79.38.2.69.3.93.3.45,0,.74-.29.86-.86.12-.57.18-1.41.18-2.5v-8.95c0-.61.21-1.12.64-1.54Z"/>
      <path class="cls-1" d="M367.32,105.66c.43.42.64.94.64,1.54s-.21,1.12-.64,1.54c-.42.42-.94.64-1.54.64h-13.45v13.26c0,.61-.21,1.12-.64,1.54-.43.42-.94.64-1.54.64s-1.12-.21-1.54-.64-.64-.94-.64-1.54v-13.26h-13.63c-.54-.06-1.01-.3-1.41-.7-.39-.41-.59-.9-.59-1.48,0-.61.21-1.12.64-1.54.42-.42.94-.64,1.54-.64h31.25c.61,0,1.12.21,1.54.64Z"/>
      <path class="cls-1" d="M377.07,116.72c.14.65.39,1.25.77,1.79.38.54.89,1.01,1.54,1.38.65.38,1.51.57,2.57.57h18.08c1.03,0,1.88-.19,2.55-.57.66-.38,1.19-.84,1.57-1.38.38-.55.64-1.14.77-1.79.14-.65.2-1.25.2-1.79v-7.68c0-.61.21-1.12.64-1.54.42-.42.94-.64,1.54-.64s1.12.21,1.54.64c.42.42.64.94.64,1.54v7.68c0,1.15-.19,2.31-.57,3.47-.38,1.17-.93,2.23-1.66,3.18-.73.95-1.61,1.73-2.64,2.34-1.03.61-2.19.91-3.5.91h-20.72c-1.24-.06-2.35-.4-3.32-1.02-.97-.62-1.79-1.4-2.47-2.34-.68-.94-1.2-1.98-1.57-3.13-.36-1.15-.54-2.29-.54-3.41v-7.68c0-.61.21-1.12.64-1.54.43-.42.94-.64,1.54-.64s1.12.21,1.54.64c.42.42.64.94.64,1.54v7.68c0,.54.07,1.14.21,1.79Z"/>
      <path class="cls-1" d="M452.36,122.65c0,.61-.21,1.12-.64,1.54-.43.42-.94.64-1.54.64s-1.12-.21-1.54-.64c-.42-.42-.64-.94-.64-1.54v-9.9c0-1.24-.07-1.86-.23-1.86-.12,0-.54.41-1.27,1.23l-9.99,11.36c-.39.45-.88.79-1.45,1.02-.58.23-1.2.34-1.86.34s-1.29-.11-1.86-.34c-.58-.23-1.06-.57-1.45-1.02l-9.99-11.36c-.7-.82-1.12-1.23-1.27-1.23s-.23.62-.23,1.86v9.9c0,.61-.21,1.12-.64,1.54-.43.42-.94.64-1.54.64s-1.12-.21-1.54-.64c-.42-.42-.64-.94-.64-1.54v-13.26c0-1.21.35-2.24,1.04-3.09.7-.85,1.65-1.27,2.86-1.27.73,0,1.38.18,1.95.54.57.36,1.1.8,1.59,1.32l10.45,11.9c.15.15.34.31.57.48.23.17.46.25.71.25s.48-.08.7-.25c.23-.17.42-.32.57-.48l10.4-11.9h.04c.43-.57.94-1.03,1.54-1.36s1.27-.5,2-.5c1.21,0,2.16.42,2.86,1.27.7.85,1.04,1.88,1.04,3.09v13.26Z"/>
    </g>
  </g>
</svg>