<?xml version="1.0" encoding="UTF-8"?>
<svg id="final" xmlns="http://www.w3.org/2000/svg" xmlns:xlink="http://www.w3.org/1999/xlink" viewBox="0 0 350 350">
  <defs>
    <style>
      .cls-1 {
        fill: #e5e5e5;
      }

      .cls-2 {
        fill: url(#Degradado_sin_nombre_115);
      }

      .cls-3 {
        fill: url(#Degradado_sin_nombre_115-5);
      }

      .cls-4 {
        fill: url(#Degradado_sin_nombre_115-6);
      }

      .cls-5 {
        fill: url(#Degradado_sin_nombre_115-3);
      }

      .cls-6 {
        fill: url(#Degradado_sin_nombre_115-4);
      }

      .cls-7 {
        fill: url(#Degradado_sin_nombre_115-2);
      }
    </style>
    <linearGradient id="Degradado_sin_nombre_115" data-name="Degradado sin nombre 115" x1="181.88" y1="96.23" x2="173.03" y2="167.49" gradientUnits="userSpaceOnUse">
      <stop offset="0" stop-color="#09487c"/>
      <stop offset="1" stop-color="#675a78"/>
    </linearGradient>
    <linearGradient id="Degradado_sin_nombre_115-2" data-name="Degradado sin nombre 115" x1="181.88" y1="96.23" x2="173.03" y2="167.49" xlink:href="#Degradado_sin_nombre_115"/>
    <linearGradient id="Degradado_sin_nombre_115-3" data-name="Degradado sin nombre 115" x1="179.46" y1="95.93" x2="170.62" y2="167.19" xlink:href="#Degradado_sin_nombre_115"/>
    <linearGradient id="Degradado_sin_nombre_115-4" data-name="Degradado sin nombre 115" x1="123.71" y1="89.01" x2="114.87" y2="160.27" xlink:href="#Degradado_sin_nombre_115"/>
    <linearGradient id="Degradado_sin_nombre_115-5" data-name="Degradado sin nombre 115" x1="189.01" y1="97.11" x2="180.17" y2="168.38" xlink:href="#Degradado_sin_nombre_115"/>
    <linearGradient id="Degradado_sin_nombre_115-6" data-name="Degradado sin nombre 115" x1="154.3" y1="92.8" x2="145.45" y2="164.07" xlink:href="#Degradado_sin_nombre_115"/>
  </defs>
  <g>
    <path class="cls-1" d="M163.41,294.34c0,2.06-1.49,3.3-3.95,3.3h-2.34v2.87h-1.35v-9.48h3.7c2.47,0,3.95,1.25,3.95,3.31ZM162.05,294.34c0-1.35-.91-2.13-2.64-2.13h-2.3v4.25h2.3c1.73,0,2.64-.77,2.64-2.13Z"/>
    <path class="cls-1" d="M164.53,296.93c0-2.14,1.58-3.66,3.74-3.66s3.73,1.52,3.73,3.66-1.57,3.67-3.73,3.67-3.74-1.53-3.74-3.67ZM170.68,296.93c0-1.53-1.03-2.52-2.41-2.52s-2.42.99-2.42,2.52,1.04,2.53,2.42,2.53,2.41-1,2.41-2.53Z"/>
    <path class="cls-1" d="M184.46,293.34l-2.68,7.18h-1.25l-2.07-5.44-2.1,5.44h-1.24l-2.67-7.18h1.23l2.09,5.72,2.17-5.72h1.1l2.13,5.74,2.14-5.74h1.17Z"/>
    <path class="cls-1" d="M192.04,297.36h-5.82c.16,1.26,1.18,2.1,2.6,2.1.84,0,1.54-.28,2.07-.87l.72.84c-.65.76-1.64,1.16-2.83,1.16-2.32,0-3.86-1.53-3.86-3.67s1.53-3.66,3.6-3.66,3.55,1.49,3.55,3.7c0,.11-.01.27-.03.39ZM186.22,296.43h4.6c-.13-1.2-1.04-2.06-2.3-2.06s-2.17.84-2.3,2.06Z"/>
    <path class="cls-1" d="M197.74,293.27v1.26c-.11-.01-.2-.01-.3-.01-1.4,0-2.26.85-2.26,2.42v3.58h-1.3v-7.18h1.25v1.2c.46-.84,1.35-1.27,2.61-1.27Z"/>
    <path class="cls-1" d="M205.73,297.36h-5.82c.16,1.26,1.18,2.1,2.6,2.1.84,0,1.54-.28,2.07-.87l.72.84c-.65.76-1.64,1.16-2.83,1.16-2.32,0-3.86-1.53-3.86-3.67s1.53-3.66,3.6-3.66,3.55,1.49,3.55,3.7c0,.11-.01.27-.03.39ZM199.91,296.43h4.6c-.13-1.2-1.04-2.06-2.3-2.06s-2.17.84-2.3,2.06Z"/>
    <path class="cls-1" d="M214.34,290.47v10.05h-1.25v-1.14c-.58.81-1.5,1.22-2.56,1.22-2.1,0-3.63-1.48-3.63-3.67s1.53-3.66,3.63-3.66c1.02,0,1.91.38,2.51,1.15v-3.95h1.3ZM213.05,296.93c0-1.53-1.04-2.52-2.41-2.52s-2.42.99-2.42,2.52,1.04,2.53,2.42,2.53,2.41-1,2.41-2.53Z"/>
    <path class="cls-1" d="M227.89,296.93c0,2.2-1.53,3.67-3.63,3.67-1.06,0-1.98-.41-2.56-1.22v1.14h-1.25v-10.05h1.3v3.95c.6-.77,1.49-1.15,2.51-1.15,2.1,0,3.63,1.46,3.63,3.66ZM226.58,296.93c0-1.53-1.04-2.52-2.42-2.52s-2.41.99-2.41,2.52,1.04,2.53,2.41,2.53,2.42-1,2.42-2.53Z"/>
    <path class="cls-1" d="M235.85,293.34l-3.48,7.9c-.64,1.52-1.46,1.99-2.56,1.99-.69,0-1.39-.23-1.84-.66l.56-.97c.35.34.8.53,1.29.53.62,0,1.02-.28,1.37-1.11l.23-.5-3.17-7.16h1.36l2.5,5.74,2.48-5.74h1.27Z"/>
    <path class="cls-1" d="M249.21,296.08l-4.94-8.33c-.33-.55-.93-.89-1.57-.89h-1.83v11.54c0,1.05.85,1.9,1.9,1.9h.81v-9.23l4.94,8.33c.33.55.93.89,1.57.89h0c1.01,0,1.83-.82,1.83-1.83v-11.61s-.88,0-.88,0c-1.01,0-1.83.82-1.83,1.83v7.4Z"/>
    <path class="cls-1" d="M259.55,290.94c.02,1.38,0,5.51,0,5.51,0,1.17-.59,1.74-1.78,1.74s-1.78-.57-1.78-1.74v-5.53c0-.71-.58-1.29-1.29-1.29h-1.34v6.28c0,1.76.45,2.9,1.36,3.48.91.59,1.88.89,2.96.89s2.15-.28,3.08-.81c.93-.57,1.38-1.76,1.38-3.56v-6.28h-1.34c-.87,0-1.27.43-1.26,1.3Z"/>
    <path class="cls-1" d="M272.83,289.84h-2.01c-.63,0-1.2.34-1.51.88l-1.24,2.18-1.24-2.18c-.31-.54-.89-.88-1.51-.88h-2.01l2.28,3.63c.56.89.56,2.03,0,2.92l-2.47,3.9h2.21c.63,0,1.21-.34,1.52-.88l1.24-2.19,1.24,2.19c.31.55.89.88,1.52.88h2.21l-2.47-3.9c-.57-.89-.57-2.03,0-2.92l2.28-3.63Z"/>
    <rect class="cls-1" x="274.09" y="286.88" width="2.62" height="2.4" rx="1.2" ry="1.2"/>
    <path class="cls-1" d="M274.09,300.29h2.63v-7.07c0-1.45-1.18-2.63-2.63-2.63h0v9.7Z"/>
    <path class="cls-1" d="M283.79,289.52c-1.3,0-2.29.53-2.96,1.62v-2.97c0-.87-.43-1.32-1.3-1.32h-1.32v8.76c0,3.14,1.64,4.7,4.9,4.68,3.24-.06,4.86-1.82,4.86-5.3s-1.38-5.38-4.17-5.47ZM283.02,298.06c-1.5,0-2.21-1.07-2.19-3.18.08-2.02.81-3,2.23-3s2.15.99,2.21,3c0,2.11-.75,3.18-2.25,3.18Z"/>
    <path class="cls-1" d="M292.7,300.35c1.3,0,2.94-.53,3.61-1.62l-.64.23c0,.87,1.08,1.32,1.95,1.32h.68v-6.02c0-3.14-1.64-4.7-4.9-4.68-3.24.06-4.86,1.82-4.86,5.3s1.38,5.38,4.17,5.47ZM293.47,291.82c1.5,0,2.21,1.07,2.19,3.18-.08,2.02-.81,3-2.23,3s-2.15-.99-2.21-3c0-2.11.75-3.18,2.25-3.18Z"/>
    <path class="cls-1" d="M300.55,287.59h.73c.13,0,.25.03.35.08.1.05.18.13.23.22.06.1.08.2.08.32,0,.13-.04.24-.12.34-.08.1-.18.17-.3.22v.02s.53.76.53.76v.02h-.43l-.51-.75h-.18v.75h-.38v-1.99ZM301.27,288.49c.09,0,.15-.03.21-.08.05-.05.08-.12.08-.2s-.03-.14-.08-.19c-.05-.05-.12-.08-.21-.08h-.35v.55h.35Z"/>
    <path class="cls-1" d="M301.19,290.3c-.94,0-1.71-.77-1.71-1.71s.77-1.71,1.71-1.71,1.71.77,1.71,1.71-.77,1.71-1.71,1.71ZM301.19,287.17c-.78,0-1.42.64-1.42,1.42s.64,1.42,1.42,1.42,1.42-.64,1.42-1.42-.64-1.42-1.42-1.42Z"/>
    <g>
      <path class="cls-1" d="M72.03,269.55c.93,0,1.69-.17,2.29-.51.6-.34,1.07-.76,1.41-1.25.34-.49.57-1.03.69-1.62.12-.59.19-1.13.19-1.62s-.06-1.03-.19-1.62c-.12-.59-.35-1.13-.69-1.62-.34-.49-.81-.91-1.41-1.25s-1.36-.51-2.29-.51h-16.54c-.95,0-1.72.17-2.31.51s-1.05.76-1.39,1.25c-.34.49-.57,1.03-.69,1.62-.12.59-.19,1.13-.19,1.62s.06,1.03.19,1.62c.12.59.35,1.13.69,1.62.34.49.8.91,1.39,1.25.59.34,1.36.51,2.31.51h8.43c.55,0,1.01.19,1.39.57.38.38.57.85.57,1.39s-.19,1.01-.57,1.39c-.38.38-.85.57-1.39.57h-9.7c-1.12-.05-2.12-.36-2.99-.92-.87-.56-1.62-1.26-2.23-2.11-.61-.85-1.08-1.79-1.41-2.82-.33-1.04-.49-2.06-.49-3.07s.17-2.08.51-3.13c.34-1.05.84-2.01,1.49-2.87.65-.86,1.45-1.56,2.37-2.11.93-.55,1.98-.82,3.15-.82h18.66c1.12.05,2.12.36,2.99.92.87.56,1.62,1.26,2.23,2.11.61.85,1.08,1.79,1.41,2.82.33,1.04.49,2.06.49,3.07s-.17,2.08-.51,3.13c-.34,1.05-.84,2.01-1.5,2.87-.65.86-1.45,1.56-2.37,2.11-.93.55-1.98.82-3.15.82h-.86c-.55,0-1.01-.19-1.39-.57-.38-.38-.57-.85-.57-1.39s.19-1.01.57-1.39.85-.57,1.39-.57ZM76.43,276.26c0-.56.19-1.03.58-1.41.39-.39.86-.58,1.42-.58s1.03.19,1.41.58c.39.39.58.86.58,1.41s-.19,1.03-.58,1.41c-.39.39-.86.58-1.41.58s-1.03-.19-1.42-.58c-.39-.39-.58-.86-.58-1.41ZM67.4,266.14c0-.56.19-1.03.58-1.41.39-.39.86-.58,1.42-.58s1.03.19,1.41.58c.39.39.58.86.58,1.41s-.19,1.03-.58,1.41c-.39.39-.86.58-1.41.58s-1.03-.19-1.42-.58c-.39-.39-.58-.86-.58-1.41Z"/>
      <path class="cls-1" d="M88.62,266.17c.12.59.35,1.13.69,1.62.34.49.8.91,1.39,1.25.59.34,1.36.51,2.31.51h16.29c.93,0,1.69-.17,2.29-.51.6-.34,1.07-.76,1.41-1.25.34-.49.57-1.03.7-1.62.12-.59.18-1.13.18-1.62v-6.92c0-.55.19-1.01.57-1.39s.85-.57,1.39-.57,1.01.19,1.39.57c.38.38.57.85.57,1.39v6.92c0,1.04-.17,2.08-.51,3.13-.34,1.05-.84,2.01-1.49,2.87-.65.86-1.45,1.56-2.38,2.11-.93.55-1.98.82-3.15.82h-18.67c-1.12-.05-2.11-.36-2.99-.92-.87-.56-1.62-1.26-2.23-2.11-.61-.85-1.08-1.79-1.41-2.82-.33-1.04-.49-2.06-.49-3.07v-6.92c0-.55.19-1.01.57-1.39.38-.38.85-.57,1.39-.57s1.01.19,1.39.57c.38.38.57.85.57,1.39v6.92c0,.49.06,1.03.19,1.62Z"/>
      <path class="cls-1" d="M124.38,272.74c-.41.49-.92.74-1.51.74-.55,0-1.01-.19-1.39-.57-.38-.38-.57-.85-.57-1.39,0-.49.13-.89.41-1.19l9.95-13.38c.46-.63,1.08-1.14,1.84-1.54.76-.39,1.58-.59,2.46-.59.82,0,1.6.18,2.33.53s1.34.85,1.8,1.47l9.95,13.3c.16.19.3.4.41.63.11.23.16.48.16.76,0,.55-.19,1.01-.57,1.39-.38.38-.85.57-1.39.57-.65,0-1.18-.26-1.56-.78l-9.54-12.73c-.19-.22-.43-.46-.72-.72-.29-.26-.58-.39-.88-.39s-.59.13-.88.39c-.29.26-.51.5-.67.72l-9.62,12.77Z"/>
      <path class="cls-1" d="M182.74,256.21c.38-.38.84-.57,1.39-.57s1.01.19,1.39.57c.38.38.57.85.57,1.39v11.91c0,1.12-.37,2.06-1.13,2.82-.75.76-1.68,1.15-2.8,1.15-.38,0-.76-.05-1.13-.16s-.7-.26-1-.45l-18.75-11.46c-.52-.3-.95-.54-1.29-.72-.34-.18-.62-.27-.84-.27-.41,0-.67.26-.78.78-.11.52-.16,1.27-.16,2.25v8.06c0,.55-.19,1.01-.57,1.39-.38.38-.85.57-1.39.57s-1.01-.19-1.39-.57c-.38-.38-.57-.85-.57-1.39v-11.91c0-1.12.37-2.06,1.13-2.82.75-.76,1.68-1.15,2.8-1.15.38,0,.76.05,1.13.16.37.11.7.26,1,.45l18.75,11.46c.52.3.95.54,1.29.72.34.18.62.27.84.27.41,0,.67-.26.78-.78.11-.52.16-1.27.16-2.25v-8.06c0-.55.19-1.01.57-1.39Z"/>
      <path class="cls-1" d="M221.71,256.21c.38.38.57.85.57,1.39s-.19,1.01-.57,1.39c-.38.38-.85.57-1.39.57h-12.11v11.95c0,.55-.19,1.01-.57,1.39-.38.38-.85.57-1.39.57s-1.01-.19-1.39-.57-.57-.85-.57-1.39v-11.95h-12.28c-.49-.05-.91-.27-1.27-.63-.35-.37-.53-.81-.53-1.33,0-.55.19-1.01.57-1.39.38-.38.84-.57,1.39-.57h28.16c.55,0,1.01.19,1.39.57Z"/>
      <path class="cls-1" d="M230.49,266.17c.12.59.35,1.13.69,1.62.34.49.8.91,1.39,1.25.59.34,1.36.51,2.31.51h16.29c.93,0,1.69-.17,2.29-.51.6-.34,1.07-.76,1.41-1.25.34-.49.57-1.03.7-1.62.12-.59.18-1.13.18-1.62v-6.92c0-.55.19-1.01.57-1.39.38-.38.85-.57,1.39-.57s1.01.19,1.39.57c.38.38.57.85.57,1.39v6.92c0,1.04-.17,2.08-.51,3.13-.34,1.05-.84,2.01-1.49,2.87-.65.86-1.45,1.56-2.38,2.11-.93.55-1.98.82-3.15.82h-18.67c-1.12-.05-2.11-.36-2.99-.92-.87-.56-1.62-1.26-2.23-2.11-.61-.85-1.08-1.79-1.41-2.82-.33-1.04-.49-2.06-.49-3.07v-6.92c0-.55.19-1.01.57-1.39.38-.38.85-.57,1.39-.57s1.01.19,1.39.57c.38.38.57.85.57,1.39v6.92c0,.49.06,1.03.19,1.62Z"/>
      <path class="cls-1" d="M298.33,271.52c0,.55-.19,1.01-.57,1.39-.38.38-.85.57-1.39.57s-1.01-.19-1.39-.57c-.38-.38-.57-.85-.57-1.39v-8.92c0-1.12-.07-1.68-.2-1.68-.11,0-.49.37-1.15,1.1l-9,10.23c-.36.41-.79.72-1.31.92-.52.2-1.08.31-1.68.31s-1.16-.1-1.68-.31c-.52-.21-.96-.51-1.31-.92l-9-10.23c-.63-.74-1.01-1.1-1.15-1.1s-.2.56-.2,1.68v8.92c0,.55-.19,1.01-.57,1.39-.38.38-.85.57-1.39.57s-1.01-.19-1.39-.57c-.38-.38-.57-.85-.57-1.39v-11.95c0-1.09.31-2.02.94-2.78.63-.76,1.49-1.15,2.58-1.15.65,0,1.24.16,1.76.49.52.33.99.72,1.43,1.19l9.41,10.72c.14.14.31.28.51.43.21.15.42.23.64.23s.43-.07.63-.23c.2-.15.37-.29.51-.43l9.37-10.72h.04c.38-.52.85-.93,1.39-1.23s1.15-.45,1.8-.45c1.09,0,1.95.38,2.58,1.15.63.76.94,1.69.94,2.78v11.95Z"/>
    </g>
  </g>
  <g>
    <path class="cls-1" d="M163.68,193.94c-.96,0-1.86-.48-2.39-1.28l-21.13-31.7c-1.26-1.89-1.92-4.09-1.92-6.37s.67-4.48,1.92-6.37l11.49-17.23c2.14-3.21,5.71-5.12,9.56-5.12h27.57c3.85,0,7.43,1.91,9.56,5.12l11.49,17.23c1.26,1.89,1.92,4.09,1.92,6.37s-.67,4.48-1.92,6.37l-11.49,17.23c-2.14,3.21-5.71,5.12-9.56,5.12h-15.64c-1.02,0-1.97.55-2.49,1.43l-4.49,7.75c-.5.86-1.4,1.4-2.39,1.43-.03,0-.06,0-.09,0ZM161.21,131.62c-1.93,0-3.71.96-4.78,2.56l-11.49,17.23c-.63.94-.96,2.04-.96,3.18s.33,2.24.96,3.18l18.57,27.85,2.18-3.76c1.54-2.65,4.39-4.3,7.46-4.3h15.64c1.93,0,3.71-.96,4.78-2.56l11.49-17.23c.63-.94.96-2.04.96-3.18s-.33-2.24-.96-3.18l-11.49-17.23c-1.07-1.61-2.86-2.56-4.78-2.56h-27.57Z"/>
    <path class="cls-1" d="M198.43,152.78c0-9.25-19.12-14.42-46.86-17.2v.2c24.66,2.64,41.3,7.3,41.3,15.27s-15.95,15.67-41.3,20.78v4.63c28.59-5.59,46.86-14.12,46.86-23.68Z"/>
    <path class="cls-1" d="M163.6,143.72c0-2.64-4.44-4.67-12.03-6.23l-8.98,16.22,8.98-2.32c7.69-2.3,12.03-4.9,12.03-7.66Z"/>
    <path class="cls-1" d="M180.37,147.58c0-5.46-11.24-9-28.8-11.26v.28c14.56,2.08,23.64,5.17,23.64,9.7s-8.81,9.07-23.64,12.56l-7.59,1.05,3.53,3.63c17.94-3.97,32.86-10.29,32.86-15.96Z"/>
    <path class="cls-2" d="M175,226.71c-41.4,0-75.08-33.68-75.08-75.08s33.68-75.08,75.08-75.08,75.08,33.68,75.08,75.08-33.68,75.08-75.08,75.08ZM175,78.75c-40.19,0-72.88,32.69-72.88,72.88s32.7,72.88,72.88,72.88,72.88-32.69,72.88-72.88-32.7-72.88-72.88-72.88Z"/>
    <path class="cls-7" d="M175,111.18c-46.94,0-83.71,17.77-83.71,40.46,0,17.27,21.31,31.67,52.17,37.57-.37-.95-.64-1.95-.79-2.98-28.9-5.8-49.18-19.12-49.18-34.6,0-20.79,36.56-37.71,81.51-37.71s81.51,16.92,81.51,37.71c0,19.56-35.09,36.1-76.32,37.96.18.75.31,1.53.37,2.31.05.15.52,0,2.9,0,42.82-1.99,75.24-18.96,75.24-40.27,0-22.69-36.77-40.46-83.71-40.46Z"/>
    <circle class="cls-5" cx="177.42" cy="112.39" r="4.87"/>
    <circle class="cls-6" cx="122.26" cy="100.74" r="7.63"/>
    <circle class="cls-3" cx="177.42" cy="190.5" r="4.87"/>
    <circle class="cls-4" cx="142.6" cy="187.1" r="2.69"/>
  </g>
</svg>