<svg xmlns="http://www.w3.org/2000/svg" width="38.947" height="37.895" viewBox="0 0 38.947 37.895">
  <g id="Grupo_30591" data-name="Grupo 30591" transform="translate(-0.132 0.705)">
    <g id="Grupo_30588" data-name="Grupo 30588">
      <path id="Trazado_10476" data-name="Trazado 10476" d="M17.5,58.9a8.75,8.75,0,1,0-8.751,8.75A8.751,8.751,0,0,0,17.5,58.9Zm-6.11,2.252a2.072,2.072,0,0,1-.607.7,2.657,2.657,0,0,1-.925.421,4.3,4.3,0,0,1-.488.09v1.045H8.124V62.382a5.852,5.852,0,0,1-1.011-.172,3.982,3.982,0,0,1-1.127-.672.2.2,0,0,1-.1-.151.218.218,0,0,1,.059-.172l.625-.623a.2.2,0,0,1,.253-.029,2.857,2.857,0,0,0,.821.5,4.1,4.1,0,0,0,1.056.143,2.287,2.287,0,0,0,1.1-.233.779.779,0,0,0,.435-.733.749.749,0,0,0-.214-.566,1.221,1.221,0,0,0-.723-.263l-1.119-.094a2.743,2.743,0,0,1-1.53-.553,1.707,1.707,0,0,1-.539-1.382A1.938,1.938,0,0,1,6.884,55.8a2.523,2.523,0,0,1,.835-.413A4.033,4.033,0,0,1,8.13,55.3v-.9H9.376v.882a5.019,5.019,0,0,1,.825.145,3.157,3.157,0,0,1,.9.478.207.207,0,0,1,.106.151.21.21,0,0,1-.055.174l-.586.6a.2.2,0,0,1-.239.037,2.448,2.448,0,0,0-.647-.325,3.706,3.706,0,0,0-.946-.116,1.528,1.528,0,0,0-.958.247.793.793,0,0,0-.31.649.69.69,0,0,0,.219.553,1.333,1.333,0,0,0,.745.249l.98.082a2.863,2.863,0,0,1,1.648.578,1.757,1.757,0,0,1,.56,1.407,2.015,2.015,0,0,1-.221.966Z" transform="translate(0.132 -40.053)" fill="#6f565e"/>
      <path id="Trazado_10477" data-name="Trazado 10477" d="M47.406,8a11.549,11.549,0,0,1,7.153-2.469l.1,0L53.788,8.17l8.667-2.118L56.493,0,55.429,3.217c-.288-.019-.579-.03-.871-.03a13.927,13.927,0,0,0-9.867,4.086c-.09.09-.176.183-.262.275h.041A9.631,9.631,0,0,1,47.406,8Z" transform="matrix(0.995, 0.105, -0.105, 0.995, -33.198, -5.35)" fill="#6f565e"/>
      <g id="Grupo_30592" data-name="Grupo 30592" transform="translate(0 0.037)">
        <circle id="Elipse_2246" data-name="Elipse 2246" cx="8.75" cy="8.75" r="8.75" transform="translate(21.579 10.107)" fill="#6f565e"/>
        <text id="_" data-name="#" transform="translate(27.005 23.158)" fill="#fff" font-size="13" font-family="MyriadPro-Semibold, Myriad Pro" font-weight="600"><tspan x="0" y="0">#</tspan></text>
      </g>
      <path id="Trazado_10480" data-name="Trazado 10480" d="M47.406,8a11.549,11.549,0,0,1,7.153-2.469l.1,0L53.788,8.17l8.667-2.118L56.493,0,55.429,3.217c-.288-.019-.579-.03-.871-.03a13.927,13.927,0,0,0-9.867,4.086c-.09.09-.176.183-.262.275h.041A9.631,9.631,0,0,1,47.406,8Z" transform="matrix(-0.999, -0.035, 0.035, -0.999, 72.793, 38.74)" fill="#6f565e"/>
    </g>
  </g>
</svg>
