<svg id="USER_ICON" data-name="USER ICON" xmlns="http://www.w3.org/2000/svg" width="34" height="34" viewBox="0 0 34 34">
  <g id="Icon-account">
    <path id="Trazado_1384" data-name="Trazado 1384" d="M34.875,20A14.875,14.875,0,1,0,49.75,34.875,14.875,14.875,0,0,0,34.875,20Zm0,4.462a4.462,4.462,0,1,1-4.462,4.462A4.463,4.463,0,0,1,34.875,24.463Zm0,22.312A11.893,11.893,0,0,1,24.7,41.05a5.713,5.713,0,0,1,2.737-3.2,16.188,16.188,0,0,1,7.438-1.488,15.564,15.564,0,0,1,7.438,1.488,5.75,5.75,0,0,1,2.718,3.23A11.892,11.892,0,0,1,34.875,46.775Z" transform="translate(-17.167 -17.167)" fill="#eae4e5"/>
    <rect id="Rectángulo_16" data-name="Rectángulo 16" width="34" height="34" fill="none"/>
  </g>
</svg>
